<?xml version="1.0" encoding="utf-8"?>
<!-- Generator: Adobe Illustrator 26.3.1, SVG Export Plug-In . SVG Version: 6.00 Build 0)  -->
<svg version="1.1" id="Layer_1" xmlns="http://www.w3.org/2000/svg" xmlns:xlink="http://www.w3.org/1999/xlink" x="0px" y="0px"
	 viewBox="0 0 60 60" style="enable-background:new 0 0 60 60;" xml:space="preserve">
<style type="text/css">
	.st0{fill:#020203;}
</style>
<g>
	<g>
		<path d="M34.03,15.34c-3.23-1.78-3.79-4.79-3.79-4.79h-0.41c0,0-0.56,3.01-3.79,4.79c-3.23,1.78-9.35,5.57-9.35,10.25
			c0,4.68,7.92,12.58,13.31,12.64c0.01,0,0.02,0,0.03,0c0.01,0,0.02,0,0.03,0c5.4-0.06,13.31-7.96,13.31-12.64
			C43.38,20.9,37.26,17.12,34.03,15.34z"/>
		<path d="M30.07,38.6H30c-5.38-0.06-13.69-7.96-13.69-13.02c0-3.52,3.21-7.08,9.55-10.57c3.04-1.68,3.59-4.5,3.6-4.53l0.06-0.31
			h1.04l0.06,0.31c0.01,0.03,0.57,2.86,3.6,4.53c6.34,3.5,9.55,7.05,9.55,10.57C43.76,30.64,35.45,38.54,30.07,38.6L30.07,38.6z
			 M30.03,11.2c-0.34,1.01-1.31,3.08-3.81,4.46c-6.08,3.35-9.16,6.69-9.16,9.92c0,4.28,7.61,12.21,12.94,12.26l0.04,0l0.03,0
			c5.33-0.07,12.93-7.98,12.93-12.26c0-3.23-3.08-6.56-9.16-9.92C31.34,14.28,30.37,12.21,30.03,11.2z"/>
	</g>
	<g>
		<ellipse transform="matrix(0.2298 -0.9732 0.9732 0.2298 13.5718 36.4713)" cx="29.83" cy="9.66" rx="3.29" ry="3.29"/>
		<path d="M29.83,13.32c-2.02,0-3.66-1.64-3.66-3.66c0-2.02,1.64-3.66,3.66-3.66s3.66,1.64,3.66,3.66
			C33.49,11.68,31.85,13.32,29.83,13.32z M29.83,6.75c-1.6,0-2.91,1.31-2.91,2.91c0,1.6,1.31,2.91,2.91,2.91
			c1.6,0,2.91-1.31,2.91-2.91C32.74,8.06,31.43,6.75,29.83,6.75z"/>
	</g>
	<g>
		<path d="M54.57,47.87l-3.72,5.5c0,0-3.2-3.84-6.41-3.58c-3.2,0.26-5.66,2.68-8.64,2.68c-2.97,0-4.72-0.89-5.47-3.71
			c-0.76-2.82,0-6.28,0-6.28h4.76c0,0,0.89,3.95,2.82,3.72c1.93-0.23,3.49-2.43,6.47-2.61C47.35,43.41,50.28,43.89,54.57,47.87z"/>
		<path d="M50.89,54l-0.32-0.38c-0.03-0.04-3.11-3.69-6.09-3.45c-1.49,0.12-2.85,0.74-4.16,1.35c-1.43,0.66-2.9,1.34-4.51,1.34
			c-3.34,0-5.09-1.19-5.83-3.99c-0.77-2.88-0.04-6.31,0-6.46l0.06-0.3h5.36l0.07,0.29c0.22,0.96,1.05,3.43,2.29,3.43l0,0
			c0.04,0,0.08,0,0.12-0.01c0.75-0.09,1.47-0.52,2.29-1.03c1.13-0.69,2.41-1.47,4.2-1.59c0.37-0.02,0.71-0.03,1.03-0.03
			c2.32,0,5.25,0.52,9.44,4.41l0.24,0.22L50.89,54z M44.76,49.41c2.66,0,5.17,2.41,6.06,3.36l3.27-4.84
			c-3.86-3.5-6.46-3.99-8.7-3.99c-0.31,0-0.63,0.01-0.98,0.03c-1.6,0.1-2.74,0.8-3.85,1.48c-0.86,0.53-1.68,1.02-2.59,1.13
			c-0.07,0.01-0.14,0.01-0.21,0.01c0,0,0,0,0,0c-1.8,0-2.69-2.76-2.95-3.73h-4.15c-0.16,0.88-0.55,3.58,0.05,5.81
			c0.66,2.47,2.09,3.43,5.11,3.43c1.45,0,2.78-0.62,4.2-1.27c1.37-0.63,2.79-1.29,4.41-1.42C44.53,49.41,44.64,49.41,44.76,49.41z"
			/>
	</g>
	<g>
		<path d="M5.43,47.87l3.72,5.5c0,0,3.2-3.84,6.41-3.58c3.2,0.26,5.66,2.68,8.64,2.68c2.98,0,4.72-0.89,5.47-3.71
			c0.76-2.82,0-6.28,0-6.28h-4.76c0,0-0.89,3.95-2.82,3.72c-1.93-0.23-3.49-2.43-6.47-2.61C12.65,43.41,9.72,43.89,5.43,47.87z"/>
		<path class="st0" d="M9.11,54l-4.18-6.18l0.24-0.22c4.19-3.89,7.13-4.41,9.44-4.41c0.33,0,0.66,0.01,1.03,0.03
			c1.78,0.11,3.06,0.89,4.2,1.59c0.82,0.5,1.54,0.94,2.29,1.03c0.04,0,0.08,0.01,0.12,0.01c1.24,0,2.09-2.54,2.29-3.43l0.07-0.29
			h5.36l0.06,0.3c0.03,0.15,0.77,3.58,0,6.46c-0.75,2.8-2.49,3.99-5.83,3.99c-1.61,0-3.09-0.68-4.51-1.34
			c-1.31-0.6-2.67-1.23-4.16-1.35c-2.98-0.25-6.06,3.41-6.09,3.45L9.11,54z M5.92,47.93l3.27,4.84c0.92-0.99,3.63-3.57,6.4-3.35
			c1.62,0.13,3.04,0.78,4.41,1.42c1.41,0.65,2.75,1.27,4.2,1.27c3.01,0,4.45-0.96,5.11-3.43c0.6-2.23,0.21-4.92,0.05-5.81H25.2
			c-0.27,1-1.22,3.95-3.16,3.71c-0.92-0.11-1.73-0.61-2.59-1.13c-1.11-0.68-2.26-1.38-3.85-1.48c-0.35-0.02-0.68-0.03-0.98-0.03
			C12.38,43.94,9.78,44.43,5.92,47.93z"/>
	</g>
	<g>
		<path d="M30.15,33.22h-0.64c-7.5,0.68-9.24,6.6-9.24,6.6c1.91,3.38,8.08,3.49,9.56,3.47c1.48,0.02,7.65-0.09,9.56-3.47
			C39.39,39.82,37.65,33.9,30.15,33.22z"/>
		<path class="st0" d="M30.09,43.67C30.09,43.67,30.09,43.67,30.09,43.67c-0.1,0-0.19,0-0.27,0c-0.07,0-0.15,0-0.25,0
			c-2.27,0-7.76-0.36-9.63-3.66l-0.08-0.14l0.04-0.15c0.02-0.06,1.9-6.17,9.57-6.87l0.68,0c7.7,0.7,9.58,6.81,9.6,6.87l0.04,0.15
			L39.72,40C37.84,43.31,32.36,43.67,30.09,43.67z M29.82,42.91c0.08,0,0.17,0,0.27,0c1.64,0,7.08-0.23,8.89-3.14
			c-0.33-0.92-2.29-5.59-8.86-6.18l-0.61,0c-6.54,0.6-8.5,5.26-8.83,6.18c1.81,2.91,7.25,3.14,8.89,3.14
			C29.66,42.92,29.75,42.91,29.82,42.91z"/>
	</g>
</g>
</svg>
