<?xml version="1.0" encoding="utf-8"?>
<!-- Generator: Adobe Illustrator 26.3.1, SVG Export Plug-In . SVG Version: 6.00 Build 0)  -->
<svg version="1.1" id="Layer_1" xmlns="http://www.w3.org/2000/svg" xmlns:xlink="http://www.w3.org/1999/xlink" x="0px" y="0px"
	 viewBox="0 0 60 60" style="enable-background:new 0 0 60 60;" xml:space="preserve">
<style type="text/css">
	.st0{fill:#020203;}
</style>
<g>
	<g>
		<g>
			<path class="st0" d="M30.2,34.9l4.4-3.8l0-5.9c0,0,0.7-10-4.3-9.8H30c-5.1-0.2-4.3,9.8-4.3,9.8l0,5.9l4.4,3.8v0.2L30.2,34.9v0.2
				V34.9z"/>
		</g>
		<g>
			<path class="st0" d="M30.5,35.8l-0.4-0.4l-0.4,0.4l0-0.7l-4.4-3.8l0-6c0-0.2-0.4-6.4,1.9-9c0.7-0.8,1.6-1.2,2.7-1.1h0.2
				c0,0,0.1,0,0.1,0c1,0,1.9,0.4,2.5,1.1c2.4,2.6,2,8.8,1.9,9l0,6l-4.4,3.8L30.5,35.8z M25.9,31l4.2,3.6l0,0l4.2-3.6l0-5.7
				c0-0.1,0.4-6.2-1.8-8.6c-0.6-0.7-1.3-0.9-2.2-0.9H30c-0.1,0-0.1,0-0.1,0c-0.8,0-1.5,0.3-2.1,0.9c-2.2,2.4-1.8,8.5-1.8,8.5
				L25.9,31z"/>
		</g>
	</g>
	<g>
		<rect x="29.5" y="6.7" class="st0" width="1.1" height="8.7"/>
	</g>
	<g>
		<rect x="26.9" y="9" class="st0" width="6.2" height="1.2"/>
	</g>
	<g>
		<path class="st0" d="M17.5,40.9c0,0-15.9-11.4-5.4-20.2S30,33.6,30,36.3c0,2.7,0,4.6,0,4.6H17.5z"/>
	</g>
	<g>
		<path class="st0" d="M30.3,41.3H17.4l-0.1-0.1c-0.4-0.3-8.9-6.4-9.1-13.3c-0.1-2.8,1.2-5.2,3.7-7.4c1.7-1.4,3.5-2.1,5.2-2.1
			c8,0,13.2,15.6,13.2,17.9L30.3,41.3L30.3,41.3z M17.6,40.6h12.1v-4.3c0-2.2-5.1-17.3-12.6-17.3c-1.6,0-3.2,0.7-4.8,2
			c-2.4,2-3.6,4.3-3.5,6.8C9,34.1,16.7,40,17.6,40.6z"/>
	</g>
	<g>
		<path class="st0" d="M42.5,40.9c0,0,15.9-11.4,5.4-20.2S30,33.6,30,36.3c0,2.7,0,4.6,0,4.6H42.5z"/>
	</g>
	<g>
		<path class="st0" d="M42.6,41.3H29.7v-4.9c0-2.3,5.2-17.9,13.2-17.9c1.7,0,3.5,0.7,5.2,2.1c2.6,2.1,3.8,4.6,3.7,7.4
			C51.6,34.8,43.1,40.9,42.6,41.3L42.6,41.3z M30.3,40.6h12.1c0.9-0.6,8.5-6.5,8.8-12.8c0.1-2.5-1.1-4.9-3.5-6.8
			c-1.6-1.3-3.2-2-4.8-2c-7.5,0-12.6,15.2-12.6,17.3C30.3,36.3,30.3,40.6,30.3,40.6z"/>
	</g>
	<g>
		<path class="st0" d="M44,41.3c0,0,0.3-0.5,0.8-2.3c0,0-5.6-3-14.4-3.5c-8.8-0.5-15.1,3.9-15.1,3.9c0.6,1.8,0.7,1.9,0.7,1.9
			c3,7.3-1.6,3.6-0.8,8.3c0.4,2.4,8,3.6,15.4,3.6c7-0.1,13.8-1.2,14.2-3.6C45.6,44.9,41.1,48.6,44,41.3z"/>
	</g>
	<g>
		<path d="M30.1,39.6c-6.9,0.1-11,2.4-13.4,3.3c0.1,0.2,0.1,0.4,0.1,0.6c2.3-0.9,6.3-3.3,13.3-3.3c6.9-0.1,11,2,13.4,2.7
			c0-0.2,0.1-0.4,0.2-0.6C41.2,41.7,37,39.6,30.1,39.6z"/>
	</g>
	<g>
		<path d="M15.2,48.6c1.7-1.1,5.6-4.1,14.9-4.2c8.6-0.1,12.8,2.3,14.8,3.2c-0.2-0.5-0.6-0.8-0.9-1c-2.4-1-6.6-2.9-13.8-2.8
			c-8.6,0.1-12.8,2.9-14.8,4.1c0,0.2-0.1,0.4-0.1,0.6C15.1,48.5,15.1,48.6,15.2,48.6z"/>
	</g>
	<g>
		<path d="M41.7,38.8l-9.6-2.2l0-0.3c0.2-2.6,5-15.4,10.7-15.4c1.1,0,2.3,0.5,3.6,1.6c2,1.6,2.9,3.4,2.8,5.3
			c-0.2,5-6.7,10.3-7.4,10.9L41.7,38.8z M32.9,36.1l8.7,2c3.2-2.6,6.9-6.8,7.1-10.3c0.1-1.8-0.8-3.3-2.6-4.8
			c-1.1-0.9-2.2-1.4-3.2-1.4C37.9,21.5,33.3,33.2,32.9,36.1z"/>
	</g>
	<g>
		<path d="M18.3,38.8l-0.1-0.1c-0.7-0.6-7.3-5.9-7.4-10.9c-0.1-2,0.9-3.7,2.8-5.3c1.3-1,2.5-1.6,3.6-1.6c5.6,0,10.5,12.9,10.7,15.4
			l0,0.3L18.3,38.8z M17.1,21.5c-1,0-2,0.5-3.2,1.4c-1.8,1.5-2.7,3.1-2.6,4.8c0.1,3.6,3.9,7.7,7.1,10.3l8.7-2
			C26.7,33.2,22.1,21.5,17.1,21.5z"/>
	</g>
</g>
</svg>
