<?xml version="1.0" encoding="utf-8"?>
<!-- Generator: Adobe Illustrator 26.3.1, SVG Export Plug-In . SVG Version: 6.00 Build 0)  -->
<svg version="1.1" id="Layer_1" xmlns="http://www.w3.org/2000/svg" xmlns:xlink="http://www.w3.org/1999/xlink" x="0px" y="0px"
	 viewBox="0 0 46 49.32" style="enable-background:new 0 0 46 49.32;" xml:space="preserve">
<style type="text/css">
	.st0{fill:#FFFFFF;}
	.st1{fill:#020203;}
	.st2{display:none;}
	.st3{display:inline;}
	.st4{fill:#009640;}
	.st5{fill:#3AAA35;}
</style>
<g>
	<g>
		<path class="st0" d="M27.15,25.88c-2.26,0.03-4.53,0.06-6.79,0.09c-1.11,0.01-2.21,0.03-3.32,0.04c-0.53,0.01-1.05,0.01-1.58,0.02
			c-0.32,0-0.63,0.01-0.95,0.01c-0.11,0-0.21,0-0.32,0c-0.41,0-0.42,0.01-0.04,0.01c0.5,0.38,1,0.77,1.49,1.15
			c0.24,0.38,0.01-0.11-0.03-0.25c-0.09-0.27-0.21-0.54-0.33-0.81c-0.23-0.51-0.55-0.94-0.91-1.37c-0.71-0.84-1.62-1.34-2.63-1.73
			c-0.44,1.61-0.89,3.21-1.33,4.82c1.38,0.4,2.78,0.36,4.2,0.25c0.59-0.04,1.18-0.09,1.78-0.08c0.16,0,0.33,0.01,0.49,0.03
			c-0.26-0.04-0.24-0.03,0.05,0.03c0.16,0.04,0.31,0.08,0.46,0.14c-0.22-0.09-0.2-0.07,0.07,0.06c0.84-1.44,1.68-2.88,2.52-4.32
			c-0.74-0.32-1.42-0.56-2.21-0.71c-0.31-0.06-0.63-0.12-0.94-0.19c-0.15-0.04-0.3-0.08-0.45-0.12c-0.25-0.09-0.29-0.1-0.13-0.04
			c0.16,0.06,0.12,0.04-0.11-0.08c0.2,0.16,0.19,0.14-0.02-0.06c0.16,0.2,0.16,0.18,0.01-0.06c0.1,0.25,0.1,0.23,0-0.05
			c-0.04-0.15-0.08-0.31-0.11-0.46c0.03,0.27,0.03,0.25,0-0.05c-0.02-0.32-0.04-0.64-0.05-0.96c-1.05,0.8-2.11,1.61-3.16,2.41
			c0.22,0.03,0.44,0.07,0.65,0.13c0.11,0.03,0.65,0.3,0.23,0.07c0.2,0.11,0.38,0.22,0.58,0.34c-0.4-0.25,0.11,0.1,0.18,0.17
			c0.08,0.08,0.49,0.57,0.19,0.17c0.13,0.18,0.23,0.38,0.35,0.57c0.24,0.38-0.02-0.13,0.06,0.12c0.08,0.25,0.14,0.5,0.19,0.76
			c0.23,1.29,1.87,2.14,3.08,1.75c1.39-0.45,1.99-1.69,1.75-3.08c-0.51-2.86-3.04-5.38-5.92-5.81c-1.54-0.23-3.21,0.63-3.16,2.41
			c0.05,1.92,0.34,4.01,1.86,5.36c0.77,0.68,1.68,1.11,2.67,1.36c0.39,0.1,0.79,0.16,1.18,0.24c0.16,0.03,0.32,0.07,0.47,0.11
			c0.03,0.01,0.74,0.25,0.3,0.06c1.2,0.52,2.74,0.4,3.42-0.9c0.62-1.18,0.32-2.74-0.9-3.42c-1.42-0.8-3-1-4.61-0.92
			c-0.69,0.04-1.37,0.11-2.06,0.14c-0.34,0.01-0.68,0.01-1.02-0.02c0.44,0.03-0.45-0.11-0.56-0.14c-1.26-0.36-2.78,0.44-3.08,1.75
			c-0.33,1.43,0.44,2.57,1.75,3.08c-0.58-0.22,0.48,0.44,0.04,0.04c0.11,0.1,0.22,0.21,0.31,0.32c-0.16-0.21-0.16-0.2,0,0.04
			c0.13,0.26,0.14,0.26,0.02,0.01c0.05,0.14,0.09,0.29,0.11,0.43c0.17,0.57,0.39,1.09,0.82,1.51c0.86,0.86,2,0.82,3.11,0.81
			c0.79-0.01,1.58-0.02,2.37-0.03c3.32-0.04,6.63-0.09,9.95-0.13c1.31-0.02,2.56-1.14,2.5-2.5C29.59,27.04,28.55,25.86,27.15,25.88
			L27.15,25.88z"/>
	</g>
</g>
<g>
	<g>
		<path class="st0" d="M27.18,27.61c1.64-0.27,3.4-0.76,4.53-2.07c0.32-0.38,0.64-0.78,0.85-1.24c0.21-0.47,0.4-0.94,0.55-1.43
			c0.22-0.72,0.41-1.44,0.58-2.17c0.13-0.56,0.1-1.1-0.13-1.63c-0.2-0.48-0.55-0.95-1.02-1.2c-0.39-0.21-0.82-0.32-1.26-0.34
			c-0.65-0.03-1.3,0.31-1.77,0.73C28.72,19,28.37,20,28.3,21.04c-0.04,0.61,0.31,1.34,0.73,1.77c0.43,0.43,1.15,0.76,1.77,0.73
			c0.65-0.03,1.32-0.24,1.77-0.73c0.47-0.51,0.69-1.08,0.73-1.77c0-0.05,0.01-0.11,0.02-0.16c-0.03,0.22-0.06,0.44-0.09,0.66
			c0.02-0.11,0.05-0.21,0.09-0.31c-0.08,0.2-0.17,0.4-0.25,0.6c0.06-0.13,0.12-0.24,0.21-0.35c-0.13,0.17-0.26,0.34-0.39,0.51
			c0.05-0.06,0.11-0.12,0.17-0.17c-1.39-0.81-2.79-1.62-4.18-2.43c-0.23,0.96-0.46,1.96-0.83,2.88c0.08-0.2,0.17-0.4,0.25-0.6
			c-0.11,0.27-0.25,0.52-0.43,0.76c0.13-0.17,0.26-0.34,0.39-0.51c-0.16,0.19-0.34,0.37-0.53,0.52c0.17-0.13,0.34-0.26,0.51-0.39
			c-0.27,0.2-0.56,0.36-0.87,0.49c0.2-0.08,0.4-0.17,0.6-0.25c-0.67,0.27-1.39,0.39-2.1,0.51c-0.58,0.1-1.21,0.66-1.49,1.15
			c-0.31,0.54-0.45,1.33-0.25,1.93c0.2,0.6,0.57,1.19,1.15,1.49c0.2,0.08,0.4,0.17,0.6,0.25C26.3,27.73,26.74,27.73,27.18,27.61
			L27.18,27.61z"/>
	</g>
</g>
<g>
	<g>
		<path class="st0" d="M20.29,18.96c0.12,0.51,0.39,1.05,0.77,1.41c0.16,0.15,0.47,0.39,0.55,0.43c0.12,0.06,0.22,0.1,0.35,0.16
			c0.37,0.16,0.29,0.13,0.69,0.19c0.41,0.06,0.32,0.06,0.72,0c0.2-0.03,0.25-0.02,0.39-0.06c0.23-0.05,0.43-0.14,0.62-0.27
			c0.17-0.13,0.34-0.26,0.51-0.39c0.19-0.19,0.36-0.4,0.48-0.64c0.05-0.11,0.11-0.22,0.19-0.32c-0.13,0.17-0.26,0.34-0.39,0.51
			c0.04-0.05,0.08-0.09,0.12-0.13c-0.17,0.13-0.34,0.26-0.51,0.39c0.03-0.02,0.06-0.04,0.1-0.06c-0.2,0.08-0.4,0.17-0.6,0.25
			c0.04-0.01,0.07-0.02,0.11-0.03c-0.22,0.03-0.44,0.06-0.66,0.09c0.04,0,0.07,0,0.11,0c-0.22-0.03-0.44-0.06-0.66-0.09
			c0.05,0.01,0.1,0.03,0.15,0.05c-0.2-0.08-0.4-0.17-0.6-0.25c0.15,0.06,0.29,0.13,0.44,0.19c0.13,0.06,0.28,0.11,0.41,0.19
			c-0.17-0.13-0.34-0.26-0.51-0.39c0.02,0.01,0.03,0.03,0.05,0.05c-0.13-0.17-0.26-0.34-0.39-0.51c0.02,0.03,0.03,0.05,0.04,0.08
			c-0.08-0.2-0.17-0.4-0.25-0.6c0.01,0.03,0.02,0.06,0.02,0.09c-0.03-0.22-0.06-0.44-0.09-0.66c0.01,0.06,0,0.13-0.01,0.19
			c0.03-0.22,0.06-0.44,0.09-0.66c0,0.02-0.01,0.04-0.01,0.06c-0.1,0.33-0.12,0.66-0.04,1c0.02,0.33,0.11,0.64,0.3,0.93
			c0.16,0.29,0.37,0.53,0.64,0.7c0.24,0.22,0.52,0.37,0.85,0.45c0.22,0.03,0.44,0.06,0.66,0.09c0.45,0,0.87-0.12,1.26-0.34
			c0.17-0.13,0.34-0.26,0.51-0.39c0.31-0.31,0.52-0.68,0.64-1.1c0.04-0.27,0.09-0.54,0.11-0.81c0-0.03,0-0.05,0-0.08
			c-0.01-0.12-0.03-0.24-0.05-0.36c-0.01-0.12-0.03-0.24-0.05-0.36c-0.03-0.13-0.09-0.22-0.14-0.36c-0.03-0.08-0.09-0.25-0.15-0.35
			c-0.11-0.2-0.26-0.39-0.42-0.54c-0.01-0.01-0.02-0.02-0.04-0.03c-0.17-0.13-0.34-0.26-0.51-0.39c-0.12-0.08-0.27-0.13-0.41-0.19
			c-0.14-0.06-0.28-0.13-0.42-0.19c-0.24-0.11-0.49-0.24-0.75-0.3c-0.57-0.14-0.89-0.11-1.46-0.01c-0.02,0-0.05,0.01-0.07,0.01
			c-0.01,0-0.03,0.01-0.04,0.01c-0.2,0.08-0.4,0.17-0.6,0.25c-0.23,0.11-0.43,0.3-0.61,0.46c-0.04,0.04-0.08,0.07-0.11,0.12
			c-0.16,0.19-0.33,0.39-0.46,0.61c-0.06,0.1-0.1,0.21-0.16,0.3c0.13-0.17,0.26-0.34,0.39-0.51c-0.01,0.02-0.03,0.03-0.04,0.05
			c0.17-0.13,0.34-0.26,0.51-0.39c-0.01,0.01-0.02,0.01-0.03,0.02c0.2-0.08,0.4-0.17,0.6-0.25c-0.02,0.01-0.04,0.02-0.06,0.02
			c0.22-0.03,0.44-0.06,0.66-0.09c-0.02,0-0.04,0-0.06,0c0.22,0.03,0.44,0.06,0.66,0.09c-0.02,0-0.04-0.01-0.06-0.02
			c0.2,0.08,0.4,0.17,0.6,0.25c-0.02-0.01-0.04-0.02-0.06-0.03c0.17,0.13,0.34,0.26,0.51,0.39c-0.03-0.02-0.05-0.04-0.07-0.07
			c0.13,0.17,0.26,0.34,0.39,0.51c-0.02-0.03-0.03-0.06-0.05-0.09c0.08,0.2,0.17,0.4,0.25,0.6c-0.03-0.06-0.04-0.13-0.06-0.2
			c-0.08-0.33-0.23-0.61-0.45-0.85c-0.18-0.27-0.41-0.49-0.7-0.64c-0.29-0.18-0.6-0.28-0.93-0.3c-0.33-0.07-0.66-0.06-1,0.04
			c-0.2,0.08-0.4,0.17-0.6,0.25c-0.38,0.22-0.67,0.52-0.9,0.9c-0.08,0.2-0.17,0.4-0.25,0.6C20.17,18.07,20.17,18.51,20.29,18.96
			L20.29,18.96z"/>
	</g>
</g>
<g>
	<g>
		<path class="st0" d="M21.26,21.57c3.22,0,3.22-5,0-5C18.04,16.57,18.03,21.57,21.26,21.57L21.26,21.57z"/>
	</g>
</g>
<g>
	<g>
		<path class="st0" d="M15.96,23.5c3.22,0,3.22-5,0-5C12.74,18.5,12.73,23.5,15.96,23.5L15.96,23.5z"/>
	</g>
</g>
<g>
	<g>
		<path class="st0" d="M9.3,34.51c3.22,0,3.22-5,0-5C6.08,29.51,6.08,34.51,9.3,34.51L9.3,34.51z"/>
	</g>
</g>
<g>
	<g>
		<path class="st0" d="M11.26,29.79c-0.01-0.04-0.03-0.08-0.04-0.12c-0.08-0.33-0.23-0.61-0.45-0.85c-0.18-0.27-0.41-0.49-0.7-0.64
			c-0.29-0.18-0.6-0.28-0.93-0.3c-0.33-0.07-0.66-0.06-1,0.04c-0.2,0.08-0.4,0.17-0.6,0.25c-0.38,0.22-0.67,0.52-0.9,0.9
			c-0.08,0.2-0.17,0.4-0.25,0.6c-0.12,0.44-0.12,0.89,0,1.33c0.01,0.04,0.03,0.08,0.04,0.12c0.08,0.33,0.23,0.61,0.45,0.85
			c0.18,0.27,0.41,0.49,0.7,0.64c0.29,0.18,0.6,0.28,0.93,0.3c0.33,0.07,0.66,0.06,1-0.04c0.2-0.08,0.4-0.17,0.6-0.25
			c0.38-0.22,0.67-0.52,0.9-0.9c0.08-0.2,0.17-0.4,0.25-0.6C11.38,30.67,11.38,30.23,11.26,29.79L11.26,29.79z"/>
	</g>
</g>
<g>
	<g>
		<path class="st0" d="M10.85,29.09c0-0.04,0-0.08,0-0.12c0.01-0.34-0.06-0.67-0.22-0.96c-0.1-0.31-0.27-0.58-0.52-0.8
			c-0.23-0.24-0.49-0.42-0.8-0.52c-0.3-0.16-0.62-0.23-0.96-0.22c-0.22,0.03-0.44,0.06-0.66,0.09c-0.42,0.12-0.79,0.33-1.1,0.64
			c-0.13,0.17-0.26,0.34-0.39,0.51c-0.23,0.39-0.34,0.81-0.34,1.26c0,0.04,0,0.08,0,0.12c-0.01,0.34,0.06,0.67,0.22,0.96
			c0.1,0.31,0.27,0.58,0.52,0.8c0.23,0.24,0.49,0.42,0.8,0.52c0.3,0.16,0.62,0.23,0.96,0.22c0.22-0.03,0.44-0.06,0.66-0.09
			c0.42-0.12,0.79-0.33,1.1-0.64c0.13-0.17,0.26-0.34,0.39-0.51C10.74,29.97,10.85,29.55,10.85,29.09L10.85,29.09z"/>
	</g>
</g>
<g>
	<g>
		<path class="st0" d="M10.68,28.38c0.04-0.07,0.08-0.13,0.13-0.19c-0.13,0.17-0.26,0.34-0.39,0.51c0.05-0.06,0.1-0.12,0.16-0.18
			c0.24-0.23,0.42-0.49,0.52-0.8c0.16-0.3,0.23-0.62,0.22-0.96c0.01-0.34-0.06-0.67-0.22-0.96c-0.1-0.31-0.27-0.58-0.52-0.8
			c-0.17-0.13-0.34-0.26-0.51-0.39c-0.39-0.23-0.81-0.34-1.26-0.34c-0.22,0.03-0.44,0.06-0.66,0.09c-0.42,0.12-0.79,0.33-1.1,0.64
			c-0.06,0.05-0.11,0.11-0.16,0.18c-0.14,0.17-0.27,0.35-0.4,0.52c-0.01,0.01-0.01,0.02-0.02,0.02c-0.01,0.02-0.02,0.03-0.03,0.05
			c-0.02,0.03-0.04,0.07-0.06,0.1c-0.18,0.29-0.28,0.6-0.3,0.93c-0.07,0.33-0.06,0.66,0.04,1c0.08,0.33,0.23,0.61,0.45,0.85
			c0.18,0.27,0.41,0.49,0.7,0.64c0.2,0.08,0.4,0.17,0.6,0.25c0.44,0.12,0.89,0.12,1.33,0c0.2-0.08,0.4-0.17,0.6-0.25
			C10.16,29.06,10.45,28.76,10.68,28.38L10.68,28.38z"/>
	</g>
</g>
<g>
	<g>
		<path class="st0" d="M9.3,28.18c3.22,0,3.22-5,0-5C6.08,23.18,6.08,28.18,9.3,28.18L9.3,28.18z"/>
	</g>
</g>
<g>
	<g>
		<path class="st0" d="M33.67,27.73c3.22,0,3.22-5,0-5C30.45,22.73,30.44,27.73,33.67,27.73L33.67,27.73z"/>
	</g>
</g>
<g>
	<g>
		<path class="st0" d="M36.42,28.1c3.22,0,3.22-5,0-5C33.2,23.1,33.2,28.1,36.42,28.1L36.42,28.1z"/>
	</g>
</g>
<g>
	<g>
		<path class="st0" d="M36.09,28.31c0.01,0.01,0.03,0.03,0.04,0.04c0.23,0.24,0.49,0.42,0.8,0.52c0.3,0.16,0.62,0.23,0.96,0.22
			c0.34,0.01,0.67-0.06,0.96-0.22c0.31-0.1,0.58-0.27,0.8-0.52c0.13-0.17,0.26-0.34,0.39-0.51c0.23-0.39,0.34-0.81,0.34-1.26
			c-0.03-0.22-0.06-0.44-0.09-0.66c-0.12-0.42-0.33-0.79-0.64-1.1c-0.01-0.01-0.03-0.03-0.04-0.04c-0.23-0.24-0.49-0.42-0.8-0.52
			c-0.3-0.16-0.62-0.23-0.96-0.22c-0.34-0.01-0.67,0.06-0.96,0.22c-0.31,0.1-0.58,0.27-0.8,0.52c-0.13,0.17-0.26,0.34-0.39,0.51
			c-0.23,0.39-0.34,0.81-0.34,1.26c0.03,0.22,0.06,0.44,0.09,0.66C35.57,27.64,35.78,28,36.09,28.31L36.09,28.31z"/>
	</g>
</g>
<g>
	<g>
		<path class="st0" d="M38.52,30.28c3.22,0,3.22-5,0-5C35.3,25.28,35.29,30.28,38.52,30.28L38.52,30.28z"/>
	</g>
</g>
<g>
	<g>
		<path class="st0" d="M38.84,31.39c3.22,0,3.22-5,0-5C35.63,26.39,35.62,31.39,38.84,31.39L38.84,31.39z"/>
	</g>
</g>
<g>
	<g>
		<path class="st0" d="M37.74,33.53c3.22,0,3.22-5,0-5C34.52,28.53,34.51,33.53,37.74,33.53L37.74,33.53z"/>
	</g>
</g>
<g>
	<g>
		<path class="st0" d="M31.24,23.4c-0.25,0.05-0.49,0.11-0.74,0.16c-0.33,0.08-0.61,0.23-0.85,0.45c-0.27,0.18-0.49,0.41-0.64,0.7
			c-0.18,0.29-0.28,0.6-0.3,0.93c-0.07,0.33-0.06,0.66,0.04,1c0.08,0.2,0.17,0.4,0.25,0.6c0.22,0.38,0.52,0.67,0.9,0.9
			c0.2,0.08,0.4,0.17,0.6,0.25c0.44,0.12,0.89,0.12,1.33,0c0.25-0.05,0.49-0.11,0.74-0.16c0.33-0.08,0.61-0.23,0.85-0.45
			c0.27-0.18,0.49-0.41,0.64-0.7c0.18-0.29,0.28-0.6,0.3-0.93c0.07-0.33,0.06-0.66-0.04-1c-0.08-0.2-0.17-0.4-0.25-0.6
			c-0.22-0.38-0.52-0.67-0.9-0.9c-0.2-0.08-0.4-0.17-0.6-0.25C32.12,23.28,31.68,23.28,31.24,23.4L31.24,23.4z"/>
	</g>
</g>
<g>
	<g>
		<path class="st0" d="M26.72,29.75c3.22,0,3.22-5,0-5C23.51,24.75,23.5,29.75,26.72,29.75L26.72,29.75z"/>
	</g>
</g>
<g>
	<g>
		<path class="st0" d="M30.42,29.5c3.22,0,3.22-5,0-5C27.2,24.5,27.2,29.5,30.42,29.5L30.42,29.5z"/>
	</g>
</g>
<g>
	<g>
		<path class="st0" d="M10.52,36.88c3.22,0,3.22-5,0-5C7.3,31.88,7.29,36.88,10.52,36.88L10.52,36.88z"/>
	</g>
</g>
<g>
	<g>
		<path class="st0" d="M10.57,37.21c3.22,0,3.22-5,0-5C7.35,32.21,7.35,37.21,10.57,37.21L10.57,37.21z"/>
	</g>
</g>
<g>
	<g>
		<path class="st0" d="M10.43,38.24c0.69,0.37,1.38,0.74,2.07,1.11c0.43,0.23,1.03,0.47,1.34,0.81c0.34,0.38,0.56,0.98,0.88,1.4
			c0.39,0.52,0.79,1.02,1.27,1.46c1.97,1.82,4.5,2.9,7.19,3.04c1.36,0.07,2.87-0.12,4.08-0.76c1.22-0.64,1.61-1.85,2.59-2.69
			c1.04-0.89,2.25-1.53,3.26-2.5c1.09-1.05,2.17-2.13,3.25-3.19c2.3-2.26-1.23-5.79-3.54-3.54c-1.71,1.67-3.32,3.43-5.31,4.77
			c-0.58,0.39-1.16,0.81-1.62,1.34c-0.38,0.44-0.66,1.08-1.07,1.47c-0.07,0.06,0.46-0.19-0.01-0.05c-0.16,0.05-0.39,0.1-0.52,0.12
			c-0.43,0.06-0.99,0.05-1.45-0.01c-1.46-0.19-3.04-1.03-4.01-2.26c-0.78-1-1.16-2.11-2.25-2.87c-1.12-0.77-2.43-1.35-3.63-1.99
			C10.12,32.39,7.59,36.71,10.43,38.24L10.43,38.24z"/>
	</g>
</g>
<g>
	<g>
		<path class="st0" d="M34.94,38.12c3.22,0,3.22-5,0-5C31.73,33.12,31.72,38.12,34.94,38.12L34.94,38.12z"/>
	</g>
</g>
<g>
	<g>
		<path class="st0" d="M35.32,37.56c3.22,0,3.22-5,0-5C32.1,32.56,32.1,37.56,35.32,37.56L35.32,37.56z"/>
	</g>
</g>
<g>
	<g>
		<path class="st0" d="M35.53,37.05c3.22,0,3.22-5,0-5C32.32,32.05,32.31,37.05,35.53,37.05L35.53,37.05z"/>
	</g>
</g>
<g>
	<g>
		<path class="st0" d="M35.61,36.86c3.22,0,3.22-5,0-5C32.4,31.86,32.39,36.86,35.61,36.86L35.61,36.86z"/>
	</g>
</g>
<g>
	<g>
		<path class="st0" d="M35.53,37.13c3.22,0,3.22-5,0-5C32.32,32.13,32.31,37.13,35.53,37.13L35.53,37.13z"/>
	</g>
</g>
<g>
	<g>
		<g>
			<path class="st1" d="M23.2,30l4.67-4.08l-0.04-6.26c0,0,0.79-10.66-4.63-10.45H23c-5.42-0.22-4.63,10.45-4.63,10.45l-0.04,6.26
				L23,30l0,0.18l0.1-0.09l0.1,0.09L23.2,30z"/>
		</g>
		<g>
			<path class="st1" d="M23.54,30.92l-0.44-0.39l-0.45,0.39l0.01-0.77l-4.67-4.08l0.04-6.42c-0.02-0.25-0.48-6.84,2.08-9.59
				c0.78-0.84,1.74-1.24,2.9-1.19l0.19,0c0.05,0,0.1,0,0.16,0c1.07,0,1.99,0.4,2.72,1.19c2.55,2.75,2.1,9.34,2.08,9.62l0.04,6.39
				l-4.67,4.08L23.54,30.92z M18.67,25.77l4.43,3.87l0,0l4.43-3.87l-0.04-6.11c0.01-0.09,0.46-6.6-1.9-9.14
				c-0.65-0.7-1.42-1.01-2.38-0.98l-0.22,0c-0.06,0-0.11,0-0.16,0c-0.89,0-1.62,0.32-2.23,0.98c-2.36,2.54-1.9,9.04-1.9,9.11
				L18.67,25.77z"/>
		</g>
	</g>
	<g>
		<rect x="22.46" y="-0.11" class="st1" width="1.19" height="9.31"/>
	</g>
	<g>
		<rect x="19.72" y="2.32" class="st1" width="6.66" height="1.25"/>
	</g>
	<g>
		<path class="st1" d="M9.65,36.41c0,0-16.99-12.18-5.72-21.53C15.2,5.53,23,28.61,23,31.48c0,2.87,0,4.93,0,4.93H9.65z"/>
	</g>
	<g>
		<path class="st1" d="M23.33,36.74H9.54l-0.09-0.06C9.07,36.4,0,29.82-0.26,22.48c-0.1-2.94,1.23-5.58,3.98-7.86
			c1.83-1.52,3.7-2.29,5.54-2.29c8.56,0,14.08,16.68,14.08,19.15V36.74z M9.76,36.07h12.9v-4.6c0-2.3-5.43-18.48-13.41-18.48
			c-1.68,0-3.4,0.72-5.11,2.14c-2.57,2.14-3.83,4.6-3.73,7.31C0.64,29.1,8.83,35.38,9.76,36.07z"/>
	</g>
	<g>
		<path class="st1" d="M36.35,36.41c0,0,16.99-12.18,5.72-21.53C30.8,5.53,23,28.61,23,31.48c0,2.87,0,4.93,0,4.93H36.35z"/>
	</g>
	<g>
		<path class="st1" d="M36.45,36.74H22.66v-5.27c0-2.47,5.51-19.15,14.08-19.15c1.84,0,3.71,0.77,5.54,2.29
			c2.74,2.28,4.08,4.92,3.98,7.86C46,29.82,36.93,36.4,36.54,36.68L36.45,36.74z M23.33,36.07h12.9c0.93-0.69,9.12-6.97,9.35-13.62
			c0.1-2.72-1.16-5.18-3.73-7.31C40.14,13.72,38.42,13,36.74,13c-7.98,0-13.41,16.18-13.41,18.48V36.07z"/>
	</g>
	<g>
		<path class="st1" d="M37.99,36.79c0,0,0.3-0.54,0.89-2.41c0,0-6-3.24-15.4-3.78c-9.41-0.54-16.13,4.16-16.13,4.16
			c0.61,1.87,0.73,2.03,0.73,2.03c3.16,7.79-1.68,3.79-0.84,8.85c0.43,2.6,8.54,3.86,16.43,3.79c7.47-0.07,14.75-1.33,15.16-3.79
			C39.68,40.58,34.83,44.58,37.99,36.79z"/>
	</g>
	<g>
		<path d="M23.1,35.02c-7.39,0.07-11.75,2.56-14.33,3.56c0.06,0.23,0.11,0.43,0.14,0.63c2.45-0.97,6.73-3.48,14.19-3.55
			c7.41-0.08,11.79,2.15,14.35,2.86c0.05-0.19,0.11-0.39,0.18-0.6C34.97,37.17,30.52,34.95,23.1,35.02z"/>
	</g>
	<g>
		<path d="M7.16,44.6c1.79-1.2,6.02-4.42,15.85-4.52c9.2-0.09,13.64,2.48,15.75,3.42c-0.22-0.55-0.62-0.81-0.98-1.09
			c-2.55-1.09-7.01-3.05-14.77-2.97c-9.22,0.09-13.66,3.05-15.78,4.36c-0.04,0.18-0.07,0.38-0.08,0.61
			C7.15,44.48,7.15,44.54,7.16,44.6z"/>
	</g>
	<g>
		<path d="M35.53,34.08l-10.2-2.32l0.02-0.29c0.18-2.74,5.37-16.47,11.39-16.47c1.2,0,2.49,0.56,3.83,1.67
			c2.09,1.74,3.08,3.6,3.01,5.68c-0.18,5.35-7.13,10.99-7.92,11.61L35.53,34.08z M26.05,31.24l9.31,2.12
			c3.43-2.74,7.41-7.22,7.54-11.01c0.06-1.87-0.84-3.55-2.76-5.14c-1.22-1.01-2.36-1.52-3.4-1.52
			C31.39,15.69,26.52,28.13,26.05,31.24z"/>
	</g>
	<g>
		<path d="M10.47,34.08l-0.13-0.1c-0.79-0.62-7.74-6.26-7.92-11.61c-0.07-2.09,0.91-3.95,3.01-5.68c1.34-1.11,2.63-1.67,3.83-1.67
			c6.02,0,11.21,13.73,11.39,16.47l0.02,0.29L10.47,34.08z M9.26,15.69c-1.04,0-2.18,0.51-3.4,1.52c-1.92,1.6-2.83,3.28-2.76,5.14
			c0.13,3.79,4.11,8.27,7.54,11.01l9.31-2.12C19.48,28.13,14.61,15.69,9.26,15.69z"/>
	</g>
</g>
<g class="st2">
	<g class="st3">
		<g>
			<path class="st4" d="M18.39,24.62l-0.01,1.12l2.41,2.11c0.15-0.09,0.31-0.17,0.47-0.24C19.78,27.11,18.83,25.96,18.39,24.62z"/>
			<path class="st4" d="M27.49,19.29c0.06,0,0.12-0.02,0.19-0.02c0.04,0,0.07,0.01,0.11,0.01c0.08-1.62,0.27-10.27-4.59-10.07H23
				c-5.01-0.2-4.65,9-4.58,10.2c0.11,0,0.22,0.02,0.33,0.03v-0.03c0-0.06,0.01-0.12,0.04-0.18c-0.01-0.03-0.04-0.05-0.05-0.08
				c-0.01-0.04-0.01-0.09-0.02-0.13c0-0.09,0.02-0.17,0.07-0.25c0.03-0.03,0.05-0.07,0.08-0.1c0.05-0.05,0.1-0.08,0.16-0.1
				c0.06-0.03,0.12-0.05,0.19-0.04c0.04,0,0.07,0.01,0.1,0.02c0.07-0.2,0.26-0.34,0.47-0.34c0.2-0.01,0.36,0.12,0.44,0.29
				c0.73-0.5,1.64-0.81,2.76-0.81c0.06,0,0.11,0.01,0.16,0.01c0.4-0.48,1.01-0.8,1.83-0.8c0.25,0,0.47,0.04,0.67,0.1
				C26.84,17.24,27.44,18.25,27.49,19.29z"/>
			<path class="st4" d="M27.7,24.63c-0.08,0-0.14-0.02-0.22-0.02c0,0.01-0.01,0.02-0.01,0.04c-0.4,1.18-1.19,2.22-2.4,2.78
				c0.19,0.07,0.38,0.14,0.55,0.23l2.19-1.91l-0.01-1.12C27.77,24.63,27.74,24.63,27.7,24.63z"/>
			<path class="st4" d="M20.79,27.41c-0.78-0.36-1.39-0.92-1.82-1.6l-0.26-0.22l0-0.22c-0.16-0.31-0.28-0.63-0.38-0.97
				c0,0-0.01,0-0.01,0c0,0,0,0,0,0c-0.02,0-0.03,0-0.05,0c-0.07-0.01-0.13-0.01-0.2-0.02l-0.01,1.5l2.46,2.15
				c0.18-0.13,0.37-0.25,0.58-0.35L20.79,27.41z"/>
			<path class="st4" d="M27.48,19.03c0.01,0.09,0.01,0.18,0.01,0.27c0.06,0,0.12-0.02,0.19-0.02c0.15,0,0.29,0.02,0.43,0.04
				c0.06-1.23,0.22-6.79-2.07-9.25c-0.73-0.78-1.63-1.18-2.68-1.18c-0.06,0-0.11,0-0.16,0l-0.19,0c-1.14-0.05-2.09,0.35-2.86,1.17
				c-2.38,2.56-2.11,8.47-2.06,9.37c0.08-0.01,0.16-0.02,0.25-0.02c0.14,0,0.27,0.02,0.39,0.04c0-0.07-0.01-0.2-0.02-0.37
				c0-0.02,0-0.03-0.01-0.05c0-0.01,0-0.01,0-0.02c-0.05-1.56-0.05-6.41,1.9-8.51c0.61-0.65,1.33-0.97,2.21-0.97
				c0.05,0,0.1,0,0.16,0l0.21,0c0.96-0.03,1.72,0.28,2.36,0.97C27.53,12.61,27.53,17.45,27.48,19.03z"/>
			<path class="st4" d="M27.7,24.63c-0.07,0-0.14-0.02-0.21-0.02c0,0.01,0,0.02-0.01,0.03l0.01,0.95l-2.19,1.91
				c0.22,0.09,0.44,0.19,0.63,0.3l2.2-1.93l-0.01-1.29C27.99,24.61,27.85,24.63,27.7,24.63z"/>
		</g>
		<g>
			<rect x="22.46" class="st4" width="1.18" height="9.21"/>
		</g>
		<g>
			<rect x="19.76" y="2.4" class="st4" width="6.59" height="1.24"/>
		</g>
		<g>
			<path class="st4" d="M18.34,24.41c-0.07,0-0.12-0.01-0.18-0.02h0c-0.2-0.01-0.38-0.04-0.55-0.09c0,0,0,0,0,0l0,0
				c-0.17-0.05-0.33-0.11-0.47-0.19l0,0c0,0,0,0,0,0c0,0,0,0,0,0c-0.09-0.05-0.19-0.1-0.27-0.16l0,0c-0.09-0.07-0.17-0.15-0.25-0.23
				c-0.01-0.01-0.01-0.01-0.02-0.02c0,0-0.01-0.01-0.01-0.01c0,0-0.01-0.01-0.01-0.01c-0.01-0.01-0.03-0.03-0.04-0.04l0,0
				c-0.04-0.05-0.08-0.11-0.11-0.16c0,0,0,0,0,0c0,0,0,0,0,0c-0.05-0.07-0.1-0.13-0.14-0.21c0,0,0,0,0,0l0,0
				c-0.04-0.08-0.07-0.16-0.11-0.24l0,0c0,0,0,0,0,0c0,0,0,0,0,0v0c-0.07-0.16-0.12-0.33-0.16-0.5c0,0,0,0,0,0s0,0,0,0s0,0,0,0
				c0,0,0-0.01,0-0.01c-0.01-0.04-0.02-0.08-0.03-0.12v0l0,0c-0.03-0.17-0.04-0.33-0.04-0.5l0,0v0c0-0.05,0.01-0.09,0.01-0.14v0
				c0,0,0,0,0,0c0.01-0.12,0.02-0.24,0.04-0.36l0,0c0.01-0.06,0.03-0.11,0.04-0.17c0,0,0,0,0,0c0.03-0.11,0.06-0.21,0.09-0.31v0
				c0,0,0,0,0,0c0.08-0.2,0.18-0.38,0.3-0.55l0,0c0.01-0.01,0.02-0.03,0.03-0.04l0,0c0.07-0.1,0.16-0.19,0.25-0.27c0,0,0,0,0,0l0,0
				c0.03-0.03,0.06-0.06,0.09-0.09c0,0,0,0,0,0s0,0,0,0c0.11-0.1,0.24-0.18,0.37-0.25c0.02-0.01,0.03-0.02,0.05-0.03c0,0,0,0,0,0
				l0,0c0.12-0.06,0.24-0.1,0.37-0.14c0,0,0,0,0,0c0,0,0,0,0,0c0.05-0.01,0.09-0.03,0.14-0.04c0,0,0,0,0,0l0,0
				c0.19-0.04,0.38-0.07,0.6-0.07c0,0,0,0,0,0c0,0,0,0,0,0c0,0,0,0,0,0c-3.34-5.37-8.27-9.5-14.19-4.59
				c-8.75,7.26-0.28,16.24,3.77,19.76c-0.1-0.26-0.17-0.52-0.23-0.79c-1.91-2.93-0.6-7.93,3.96-7.93c1.27,0,2.28,0.39,3.05,1.01
				c0.58-0.27,1.25-0.43,2.03-0.43c1.68,0,2.91,0.68,3.71,1.68c0.26-0.2,0.54-0.36,0.85-0.51C19.72,27.1,18.75,25.85,18.34,24.41z"
				/>
			<path class="st4" d="M18.35,19.41c0.13,0,0.25,0.02,0.37,0.04c-2.36-3.85-5.53-7.14-9.31-7.14c-1.82,0-3.66,0.76-5.47,2.27
				c-2.71,2.25-4.03,4.86-3.93,7.76c0.2,5.63,5.61,10.78,8.22,12.95c-0.23-0.41-0.4-0.85-0.51-1.31c-2.71-2.44-6.9-6.94-7.07-11.66
				c-0.09-2.69,1.15-5.13,3.7-7.24c1.69-1.41,3.4-2.12,5.06-2.12c3.39,0,6.31,2.95,8.54,6.5C18.08,19.43,18.2,19.41,18.35,19.41z"/>
		</g>
		<g>
			<path class="st4" d="M41.86,14.82c-5.87-4.87-10.77-0.85-14.11,4.46c1.57,0.04,2.35,1.28,2.34,2.52
				c0.16,1.35-0.64,2.83-2.39,2.83c-0.08,0-0.15-0.02-0.23-0.02c-0.04,0.12-0.08,0.23-0.13,0.35c-0.43,1.06-1.18,1.97-2.29,2.47
				c0.73,0.24,1.34,0.64,1.81,1.14c0.28,0.15,0.54,0.31,0.77,0.5c0.7-1.37,2.03-2.4,3.99-2.48c0.8-1.08,2.07-1.82,3.82-1.82
				c5.24,0,6.21,6.61,2.93,9.08c-0.03,0.19-0.06,0.38-0.11,0.56C42.38,30.79,50.48,21.98,41.86,14.82z"/>
			<path class="st4" d="M42.06,14.57c-1.81-1.5-3.65-2.27-5.47-2.27c-3.67,0-6.77,3.11-9.1,6.82c0.01,0.06,0,0.11,0,0.17
				c0.06,0,0.12-0.02,0.19-0.02c0.16,0,0.31,0.02,0.46,0.05c2.22-3.49,5.1-6.37,8.46-6.37c1.67,0,3.37,0.71,5.06,2.12
				c2.55,2.11,3.79,4.55,3.7,7.24c-0.15,4.37-3.77,8.57-6.46,11.1c-0.11,0.11-0.22,0.22-0.35,0.32c-0.05,0.04-0.09,0.09-0.14,0.13
				c-0.07,0.41-0.19,0.81-0.36,1.19c2.7-2.29,7.75-7.28,7.94-12.72C46.09,19.43,44.77,16.82,42.06,14.57z"/>
		</g>
	</g>
	<g class="st3">
		<path class="st0" d="M37.83,36.49c0,0,0.3-0.54,0.88-2.39c0,0-0.13-0.06-0.32-0.16c-0.39,1.98-1.84,3.71-4.35,3.87
			c-0.26,0.34-0.55,0.66-0.9,0.91c-0.27,0.37-0.58,0.7-0.97,0.95c-0.48,0.44-1.05,0.74-1.7,0.89c-0.09,0.02-0.17,0.06-0.26,0.09
			c-0.18,0.07-0.35,0.15-0.53,0.19c-0.2,0.05-0.39,0.09-0.59,0.12c-0.64,0.78-1.56,1.35-2.74,1.55c-0.8,1.07-2.07,1.81-3.81,1.81
			c-1.51,0-2.66-0.55-3.46-1.39c-2.89-0.53-4.11-3.31-3.71-5.79c0,0,0,0-0.01,0c-0.21,0-0.39-0.03-0.59-0.05
			c-0.02,0.01-0.04,0.02-0.06,0.03c0,0,0,0,0,0c-0.11,0.05-0.22,0.1-0.34,0.14c0,0,0,0,0,0c-0.05,0.02-0.1,0.04-0.15,0.06
			c-0.13,0.05-0.27,0.08-0.41,0.12c-0.04,0.01-0.09,0.03-0.13,0.04c0,0,0,0,0,0c-0.1,0.02-0.22,0.02-0.33,0.04
			c-0.06,0.01-0.13,0.01-0.19,0.02c-0.1,0.01-0.21,0.03-0.32,0.04c-0.01,0-0.03,0-0.04,0c-0.07,0-0.14,0.02-0.21,0.02
			c-0.03,0-0.06,0-0.09,0c0,0,0,0,0,0c0,0,0,0-0.01,0c-0.07,0-0.13-0.01-0.19-0.01c-2.44-0.03-3.93-1.5-4.49-3.31
			c-0.17,0.1-0.28,0.18-0.28,0.18c0.6,1.85,0.72,2.01,0.72,2.01c3.12,7.71-1.67,3.75-0.83,8.75c0.43,2.57,8.44,3.82,16.25,3.75
			c7.39-0.07,14.59-1.32,15-3.75C39.49,40.24,34.7,44.19,37.83,36.49z"/>
		<path class="st5" d="M39.03,34.2l0.08-0.26l-0.24-0.13c-0.01,0-0.11-0.06-0.26-0.13c-0.07,0.06-0.14,0.12-0.21,0.18
			c-0.08,0.43-0.19,0.85-0.37,1.24c-0.32,0.9-0.49,1.22-0.49,1.23l-0.02,0.04c-1.75,4.32-1.14,5.19-0.02,6.03
			c0.59,0.44,1.15,0.85,0.83,2.79c-0.32,1.94-6.49,3.39-14.67,3.47c-0.21,0-0.41,0-0.62,0h0c-8.53,0-14.96-1.46-15.3-3.47
			c-0.32-1.94,0.24-2.35,0.83-2.79c1.13-0.83,1.74-1.7-0.02-6.03l0-0.01l-0.03-0.03c-0.01-0.01-0.13-0.25-0.59-1.65
			c-0.09-0.23-0.17-0.46-0.23-0.7c-0.23,0.14-0.37,0.23-0.38,0.23l-0.2,0.14l0.08,0.23c0.26,0.8,0.59,1.77,0.74,2.05
			c1.68,4.15,0.98,4.68,0.23,5.23c-0.66,0.49-1.48,1.09-1.09,3.44c0.46,2.78,8.35,4.03,15.95,4.03h0c0.21,0,0.42,0,0.63,0
			c6.77-0.06,14.84-1.15,15.32-4.02c0.39-2.34-0.43-2.95-1.09-3.44c-0.75-0.55-1.45-1.07,0.23-5.23
			C38.19,36.51,38.5,35.89,39.03,34.2z"/>
	</g>
</g>
</svg>
