<?xml version="1.0" encoding="utf-8"?>
<!-- Generator: Adobe Illustrator 26.3.1, SVG Export Plug-In . SVG Version: 6.00 Build 0)  -->
<svg version="1.1" id="Layer_1" xmlns="http://www.w3.org/2000/svg" xmlns:xlink="http://www.w3.org/1999/xlink" x="0px" y="0px"
	 viewBox="0 0 60 60" style="enable-background:new 0 0 60 60;" xml:space="preserve">
<style type="text/css">
	.st0{fill:#FFFFFF;}
	.st1{fill:#222221;}
	.st2{fill:#0B0C0C;}
</style>
<g>
	<path class="st0" d="M49.62,54.31v-6.49c0-6.91-5.06-12.82-12.24-15.26c2.8-1.66,4.6-4.22,4.6-7.12c0-4.07-3.55-7.51-8.44-8.64
		c1.56-1.11,2.58-2.93,2.58-4.99c0-3.38-2.74-6.11-6.11-6.11c-3.38,0-6.11,2.74-6.11,6.11c0,2.06,1.02,3.88,2.58,4.99
		c-4.89,1.14-8.44,4.58-8.44,8.64c0,2.89,1.8,5.46,4.6,7.12C15.45,35,10.38,40.91,10.38,47.82v6.49
		C10.38,54.31,49.62,54.31,49.62,54.31z"/>
	<path class="st1" d="M50.03,54.72H9.97v-6.9c0-6.67,4.58-12.63,11.73-15.37c-2.61-1.79-4.09-4.31-4.09-7.01
		c0-3.97,3.17-7.45,7.97-8.84c-1.33-1.23-2.11-2.97-2.11-4.8c0-3.6,2.93-6.52,6.52-6.52s6.52,2.93,6.52,6.52
		c0,1.83-0.78,3.57-2.11,4.8c4.8,1.39,7.97,4.86,7.97,8.84c0,2.7-1.48,5.22-4.09,7.01c7.15,2.74,11.73,8.69,11.73,15.37v6.9H50.03z
		 M10.79,53.9h38.42v-6.08c0-6.56-4.7-12.4-11.97-14.88l-0.84-0.29l0.76-0.45c2.8-1.66,4.4-4.12,4.4-6.76c0-3.8-3.27-7.11-8.13-8.25
		l-0.88-0.21l0.74-0.53c1.51-1.07,2.41-2.81,2.41-4.65c0-3.15-2.56-5.71-5.71-5.71s-5.71,2.56-5.71,5.71c0,1.84,0.9,3.58,2.41,4.65
		l0.74,0.53l-0.88,0.21c-4.86,1.13-8.13,4.45-8.13,8.25c0,2.64,1.6,5.11,4.4,6.76l0.76,0.45l-0.84,0.29
		c-7.27,2.48-11.97,8.32-11.97,14.88v6.08H10.79z"/>
</g>
<path class="st2" d="M49.98,54.76v-6.61c0-7.03-5.16-13.05-12.47-15.55c2.85-1.69,4.68-4.3,4.68-7.25c0-4.14-3.62-7.64-8.6-8.8
	c1.59-1.13,2.63-2.98,2.63-5.08c0-3.44-2.79-6.23-6.23-6.23s-6.23,2.79-6.23,6.23c0,2.1,1.04,3.95,2.63,5.08
	c-4.98,1.16-8.6,4.66-8.6,8.8c0,2.94,1.84,5.56,4.68,7.25c-7.31,2.49-12.47,8.51-12.47,15.55v6.61H49.98z"/>
</svg>
