<?xml version="1.0" encoding="utf-8"?>
<!-- Generator: Adobe Illustrator 26.3.1, SVG Export Plug-In . SVG Version: 6.00 Build 0)  -->
<svg version="1.1" id="Layer_1" xmlns="http://www.w3.org/2000/svg" xmlns:xlink="http://www.w3.org/1999/xlink" x="0px" y="0px"
	 viewBox="0 0 60 60" style="enable-background:new 0 0 60 60;" xml:space="preserve">
<style type="text/css">
	.st0{fill:#FFFFFF;}
	.st1{fill:#222221;}
	.st2{fill:#0B0C0C;}
</style>
<g>
	<path class="st0" d="M48.7,53.1V47c0-6.6-4.8-12.2-11.7-14.5c2.7-1.6,4.4-4,4.4-6.8c0-3.9-3.4-7.2-8-8.2c1.5-1.1,2.5-2.8,2.5-4.8
		c0-3.2-2.6-5.8-5.8-5.8c-3.2,0-5.8,2.6-5.8,5.8c0,2,1,3.7,2.5,4.8c-4.7,1.1-8,4.4-8,8.2c0,2.8,1.7,5.2,4.4,6.8
		c-6.8,2.3-11.7,8-11.7,14.5v6.2C11.3,53.1,48.7,53.1,48.7,53.1z"/>
	<path class="st1" d="M49.1,53.5H10.9V47c0-6.4,4.4-12,11.2-14.6c-2.5-1.7-3.9-4.1-3.9-6.7c0-3.8,3-7.1,7.6-8.4
		c-1.3-1.2-2-2.8-2-4.6c0-3.4,2.8-6.2,6.2-6.2s6.2,2.8,6.2,6.2c0,1.7-0.7,3.4-2,4.6c4.6,1.3,7.6,4.6,7.6,8.4c0,2.6-1.4,5-3.9,6.7
		c6.8,2.6,11.2,8.3,11.2,14.6L49.1,53.5L49.1,53.5z M11.7,52.8h36.6V47c0-6.2-4.5-11.8-11.4-14.2l-0.8-0.3l0.7-0.4
		c2.7-1.6,4.2-3.9,4.2-6.4c0-3.6-3.1-6.8-7.7-7.9l-0.8-0.2l0.7-0.5c1.4-1,2.3-2.7,2.3-4.4c0-3-2.4-5.4-5.4-5.4s-5.4,2.4-5.4,5.4
		c0,1.8,0.9,3.4,2.3,4.4l0.7,0.5l-0.8,0.2C22.1,18.9,19,22,19,25.7c0,2.5,1.5,4.9,4.2,6.4l0.7,0.4l-0.8,0.3
		c-6.9,2.4-11.4,7.9-11.4,14.2L11.7,52.8L11.7,52.8z"/>
</g>
<path class="st2" d="M49,53.6v-6.3c0-6.7-4.9-12.4-11.9-14.8c2.7-1.6,4.5-4.1,4.5-6.9c0-3.9-3.4-7.3-8.2-8.4
	c1.5-1.1,2.5-2.8,2.5-4.8c0-3.3-2.7-5.9-5.9-5.9s-5.9,2.7-5.9,5.9c0,2,1,3.8,2.5,4.8c-4.7,1.1-8.2,4.4-8.2,8.4
	c0,2.8,1.8,5.3,4.5,6.9c-7,2.4-11.9,8.1-11.9,14.8v6.3H49z"/>
</svg>
