<?xml version="1.0" encoding="utf-8"?>
<!-- Generator: Adobe Illustrator 26.3.1, SVG Export Plug-In . SVG Version: 6.00 Build 0)  -->
<svg version="1.1" id="Layer_1" xmlns="http://www.w3.org/2000/svg" xmlns:xlink="http://www.w3.org/1999/xlink" x="0px" y="0px"
	 viewBox="0 0 60 60" style="enable-background:new 0 0 60 60;" xml:space="preserve">
<g>
	<g>
		<g>
			<path d="M42,31.3c0,0-1.2-13-5.1-19.5c0,0-5.3,6-6.7,16.9c0,0,0,0,0,0c0,0,0,0,0,0c-1.4-10.9-6.7-16.9-6.7-16.9
				c-3.9,6.5-5.1,19.5-5.1,19.5S9.9,23.7,8.1,22c1.3,1.6,6.6,18.2,6.6,18.2c3.3,8.1-1.8,3.9-0.9,9.2c0.5,2.7,8.9,4,17.1,3.9
				c7.8-0.1,15.4-1.4,15.8-3.9c0.9-5.3-4.2-1.1-0.9-9.2c0,0,5.1-16.6,6.4-18.2C50.4,23.7,42,31.3,42,31.3z"/>
			<path d="M30.2,53.7c-8,0-16.3-1.3-16.8-4.2c-0.4-2.5,0.5-3.1,1.1-3.6c0.8-0.6,1.5-1.1-0.3-5.5c-1.5-4.6-5.5-16.9-6.5-18.2
				l0.5-0.5c1.5,1.4,7.9,7.1,9.7,8.8c0.3-2.8,1.6-13.2,5.1-18.9l0.2-0.4l0.3,0.4c0.1,0.1,4.7,5.4,6.5,14.9
				c1.8-9.5,6.4-14.8,6.5-14.9l0.3-0.4l0.2,0.4c3.5,5.7,4.8,16.1,5.1,18.9c1.9-1.7,8.2-7.4,9.7-8.8l0.5,0.5
				c-1,1.3-4.9,13.5-6.3,18.1c-1.8,4.4-1,5-0.3,5.5c0.7,0.5,1.6,1.1,1.1,3.6c-0.5,3-9,4.2-16.1,4.2C30.7,53.7,30.4,53.7,30.2,53.7z
				 M9.2,23.5c2,4.6,5.6,16,5.7,16.6c1.8,4.5,1.2,5.4,0,6.3c-0.6,0.5-1.2,0.9-0.9,2.9c0.3,2.1,7.1,3.7,16.1,3.7c0.2,0,0.4,0,0.7,0
				c8.6-0.1,15.1-1.6,15.4-3.6c0.3-2-0.3-2.5-0.9-2.9c-1.2-0.9-1.8-1.8,0-6.3c0.2-0.5,3.7-12,5.6-16.6c-3,2.7-8.8,8-8.8,8L41.7,32
				l-0.1-0.7c0-0.1-1.1-12.4-4.8-18.9c-1.1,1.5-5.2,7.2-6.3,16.3l-0.4,2.8l-0.3-2.8c-1.2-9.2-5.2-14.9-6.3-16.4
				c-3.6,6.5-4.8,18.8-4.8,18.9L18.6,32l-0.5-0.5C18,31.5,12.2,26.3,9.2,23.5z"/>
		</g>
	</g>
	<g>
		<ellipse cx="23.1" cy="9.2" rx="2.6" ry="2.6"/>
		<path d="M23.1,12.2c-1.6,0-3-1.3-3-3s1.3-3,3-3s3,1.3,3,3S24.7,12.2,23.1,12.2z M23.1,6.9c-1.3,0-2.3,1-2.3,2.3s1,2.3,2.3,2.3
			s2.3-1,2.3-2.3C25.4,8,24.3,6.9,23.1,6.9z"/>
	</g>
	<g>
		<ellipse cx="37.1" cy="9.2" rx="2.6" ry="2.6"/>
		<path d="M37.1,12.2c-1.6,0-3-1.3-3-3s1.3-3,3-3c1.6,0,3,1.3,3,3S38.7,12.2,37.1,12.2z M37.1,6.9c-1.3,0-2.3,1-2.3,2.3
			s1,2.3,2.3,2.3c1.3,0,2.3-1,2.3-2.3C39.3,8,38.3,6.9,37.1,6.9z"/>
	</g>
	<g>
		<circle cx="53" cy="20.1" r="2.6"/>
		<path d="M53,23c-1.6,0-3-1.3-3-3s1.3-3,3-3c1.6,0,3,1.3,3,3C56,21.7,54.7,23,53,23z M53,17.8c-1.3,0-2.3,1-2.3,2.3s1,2.3,2.3,2.3
			c1.3,0,2.3-1,2.3-2.3C55.3,18.8,54.3,17.8,53,17.8z"/>
	</g>
	<g>
		<circle cx="7" cy="20.1" r="2.6"/>
		<path d="M7,23c-1.6,0-3-1.3-3-3s1.3-3,3-3s3,1.3,3,3S8.6,23,7,23z M7,17.8c-1.3,0-2.3,1-2.3,2.3s1,2.3,2.3,2.3s2.3-1,2.3-2.3
			S8.2,17.8,7,17.8z"/>
	</g>
</g>
</svg>
