<?xml version="1.0" encoding="utf-8"?>
<!-- Generator: Adobe Illustrator 26.3.1, SVG Export Plug-In . SVG Version: 6.00 Build 0)  -->
<svg version="1.1" id="Layer_1" xmlns="http://www.w3.org/2000/svg" xmlns:xlink="http://www.w3.org/1999/xlink" x="0px" y="0px"
	 viewBox="0 0 60 60" style="enable-background:new 0 0 60 60;" xml:space="preserve">
<style type="text/css">
	.st0{fill:#FFFFFF;}
	.st1{fill:#020203;}
	.st2{fill:#222221;}
</style>
<g>
	<g>
		<path class="st0" d="M33.99,15.47c-3.2-1.77-3.75-4.75-3.75-4.75h-0.41c0,0-0.55,2.98-3.75,4.75c-3.2,1.77-9.27,5.52-9.27,10.16
			c0,4.64,7.85,12.47,13.2,12.53c0.01,0,0.02,0,0.03,0c0.01,0,0.02,0,0.03,0c5.35-0.06,13.2-7.89,13.2-12.53
			C43.26,20.99,37.19,17.23,33.99,15.47z"/>
		<path class="st1" d="M30.07,38.52H30c-5.33-0.05-13.57-7.89-13.57-12.9c0-3.49,3.18-7.02,9.46-10.48
			c3.01-1.66,3.56-4.46,3.57-4.49l0.06-0.3h1.03l0.06,0.3c0.01,0.03,0.57,2.83,3.57,4.49c6.28,3.47,9.46,6.99,9.46,10.48
			C43.64,30.63,35.4,38.47,30.07,38.52L30.07,38.52z M30.03,11.37c-0.34,1-1.29,3.05-3.78,4.42c-6.02,3.32-9.08,6.63-9.08,9.83
			c0,4.25,7.54,12.1,12.83,12.16l0.04,0l0.03,0c5.29-0.07,12.82-7.91,12.82-12.16c0-3.2-3.05-6.5-9.08-9.83
			C31.33,14.42,30.37,12.37,30.03,11.37z"/>
	</g>
	<g>
		
			<ellipse transform="matrix(0.2298 -0.9732 0.9732 0.2298 13.3979 36.6113)" class="st0" cx="29.83" cy="9.84" rx="3.26" ry="3.26"/>
		<path class="st2" d="M29.83,13.47c-2,0-3.63-1.63-3.63-3.63c0-2,1.63-3.63,3.63-3.63s3.63,1.63,3.63,3.63
			C33.46,11.84,31.83,13.47,29.83,13.47z M29.83,6.96c-1.59,0-2.88,1.29-2.88,2.88c0,1.59,1.29,2.88,2.88,2.88
			c1.59,0,2.88-1.29,2.88-2.88C32.71,8.25,31.42,6.96,29.83,6.96z"/>
	</g>
	<g>
		<path class="st0" d="M54.36,47.71l-3.68,5.46c0,0-3.18-3.8-6.35-3.55c-3.18,0.25-5.61,2.66-8.56,2.66s-4.67-0.88-5.42-3.68
			c-0.75-2.79,0-6.22,0-6.22h4.71c0,0,0.88,3.91,2.79,3.68c1.91-0.23,3.46-2.4,6.41-2.59C47.2,43.29,50.1,43.76,54.36,47.71z"/>
		<path class="st1" d="M50.7,53.79l-0.32-0.38c-0.03-0.04-3.08-3.65-6.04-3.42c-1.48,0.12-2.82,0.74-4.12,1.34
			c-1.41,0.65-2.87,1.32-4.47,1.32c-3.31,0-5.04-1.18-5.78-3.95c-0.76-2.85-0.04-6.26,0-6.4l0.06-0.29h5.31l0.07,0.29
			c0.21,0.95,1.04,3.4,2.27,3.4l0,0c0.04,0,0.08,0,0.12-0.01c0.75-0.09,1.45-0.52,2.27-1.02c1.12-0.68,2.39-1.46,4.16-1.57
			c0.37-0.02,0.7-0.03,1.02-0.03c2.3,0,5.21,0.52,9.36,4.37l0.23,0.22L50.7,53.79z M44.63,49.24c2.63,0,5.13,2.39,6,3.33l3.24-4.79
			c-3.82-3.47-6.4-3.96-8.62-3.96c-0.31,0-0.63,0.01-0.98,0.03c-1.58,0.1-2.72,0.79-3.82,1.46c-0.85,0.52-1.66,1.01-2.57,1.12
			c-0.07,0.01-0.14,0.01-0.21,0.01c0,0,0,0,0,0c-1.78,0-2.67-2.73-2.92-3.69h-4.11c-0.16,0.88-0.54,3.55,0.05,5.76
			c0.66,2.45,2.08,3.4,5.06,3.4c1.44,0,2.76-0.61,4.16-1.26c1.36-0.63,2.77-1.27,4.37-1.4C44.4,49.24,44.52,49.24,44.63,49.24z"/>
	</g>
	<g>
		<path class="st0" d="M5.64,47.71l3.68,5.46c0,0,3.18-3.8,6.35-3.55c3.18,0.25,5.61,2.66,8.56,2.66c2.95,0,4.67-0.88,5.42-3.68
			c0.75-2.79,0-6.22,0-6.22h-4.71c0,0-0.88,3.91-2.79,3.68c-1.91-0.23-3.46-2.4-6.41-2.59C12.8,43.29,9.9,43.76,5.64,47.71z"/>
		<path class="st1" d="M9.3,53.79l-4.14-6.13l0.23-0.22c4.15-3.85,7.06-4.37,9.36-4.37c0.32,0,0.66,0.01,1.02,0.03
			c1.77,0.11,3.04,0.89,4.16,1.57c0.82,0.5,1.52,0.93,2.27,1.02c0.04,0,0.08,0.01,0.12,0.01c1.23,0,2.07-2.52,2.27-3.4l0.07-0.29
			h5.31l0.06,0.29c0.03,0.14,0.76,3.55,0,6.4c-0.74,2.77-2.47,3.95-5.78,3.95c-1.6,0-3.06-0.67-4.47-1.32
			c-1.3-0.6-2.64-1.22-4.12-1.34c-2.95-0.25-6.01,3.38-6.04,3.42L9.3,53.79z M6.13,47.77l3.24,4.79c0.91-0.98,3.59-3.54,6.34-3.32
			c1.61,0.13,3.01,0.78,4.37,1.4c1.4,0.65,2.73,1.26,4.16,1.26c2.99,0,4.41-0.95,5.06-3.4c0.59-2.21,0.21-4.88,0.05-5.76h-4.11
			c-0.26,1-1.21,3.92-3.13,3.68c-0.91-0.11-1.72-0.6-2.57-1.12c-1.1-0.67-2.24-1.36-3.82-1.46c-0.35-0.02-0.67-0.03-0.98-0.03
			C12.53,43.81,9.96,44.3,6.13,47.77z"/>
	</g>
	<g>
		<path class="st0" d="M30.15,33.19h-0.64c-7.44,0.68-9.16,6.55-9.16,6.55c1.9,3.35,8.01,3.46,9.48,3.44
			c1.46,0.02,7.58-0.09,9.48-3.44C39.31,39.73,37.58,33.87,30.15,33.19z"/>
		<path class="st1" d="M30.09,43.55C30.09,43.55,30.09,43.55,30.09,43.55c-0.1,0-0.19,0-0.26,0c-0.07,0-0.15,0-0.25,0
			c-2.25,0-7.69-0.35-9.54-3.63l-0.08-0.14L20,39.63c0.02-0.06,1.88-6.12,9.48-6.81l0.67,0c7.63,0.69,9.5,6.75,9.52,6.81l0.04,0.15
			l-0.08,0.14C37.77,43.19,32.34,43.55,30.09,43.55z M29.82,42.8c0.08,0,0.17,0,0.26,0c1.63,0,7.01-0.23,8.81-3.11
			c-0.32-0.92-2.27-5.54-8.79-6.13l-0.6,0c-6.48,0.59-8.43,5.21-8.75,6.13c1.8,2.89,7.18,3.11,8.81,3.11
			C29.67,42.8,29.75,42.8,29.82,42.8z"/>
	</g>
</g>
</svg>
