<?xml version="1.0" encoding="utf-8"?>
<!-- Generator: Adobe Illustrator 26.3.1, SVG Export Plug-In . SVG Version: 6.00 Build 0)  -->
<svg version="1.1" id="Layer_1" xmlns="http://www.w3.org/2000/svg" xmlns:xlink="http://www.w3.org/1999/xlink" x="0px" y="0px"
	 viewBox="0 0 60 60" style="enable-background:new 0 0 60 60;" xml:space="preserve">
<style type="text/css">
	.st0{fill:#FFFFFF;}
	.st1{fill:#222221;}
	.st2{fill:#020203;}
</style>
<g>
	<g>
		<g>
			<path class="st0" d="M25.6,29.8l0,1.1l2.3,2c0.1-0.1,0.3-0.2,0.4-0.2C26.9,32.2,26,31.1,25.6,29.8z"/>
			<path class="st0" d="M34.3,24.7c0.1,0,0.1,0,0.2,0c0,0,0.1,0,0.1,0c0.1-1.5,0.3-9.8-4.4-9.6H30c-4.8-0.2-4.4,8.6-4.4,9.7
				c0.1,0,0.2,0,0.3,0v0c0-0.1,0-0.1,0-0.2c0,0,0,0,0-0.1c0,0,0-0.1,0-0.1c0-0.1,0-0.2,0.1-0.2c0,0,0-0.1,0.1-0.1
				c0,0,0.1-0.1,0.2-0.1c0.1,0,0.1,0,0.2,0c0,0,0.1,0,0.1,0c0.1-0.2,0.2-0.3,0.4-0.3c0.2,0,0.3,0.1,0.4,0.3c0.7-0.5,1.6-0.8,2.6-0.8
				c0.1,0,0.1,0,0.2,0c0.4-0.5,1-0.8,1.7-0.8c0.2,0,0.4,0,0.6,0.1C33.6,22.8,34.2,23.7,34.3,24.7z"/>
			<path class="st0" d="M34.5,29.8c-0.1,0-0.1,0-0.2,0c0,0,0,0,0,0c-0.4,1.1-1.1,2.1-2.3,2.6c0.2,0.1,0.4,0.1,0.5,0.2l2.1-1.8
				L34.5,29.8C34.5,29.8,34.5,29.8,34.5,29.8z"/>
			<path class="st1" d="M27.9,32.4c-0.7-0.3-1.3-0.9-1.7-1.5l-0.2-0.2v-0.2c-0.2-0.3-0.3-0.6-0.4-0.9h0l0,0c0,0,0,0,0,0
				c-0.1,0-0.1,0-0.2,0l0,1.4l2.3,2c0.2-0.1,0.4-0.2,0.6-0.3L27.9,32.4z"/>
			<path class="st1" d="M34.3,24.5c0,0.1,0,0.2,0,0.3c0.1,0,0.1,0,0.2,0c0.1,0,0.3,0,0.4,0c0.1-1.2,0.2-6.5-2-8.8
				c-0.7-0.7-1.6-1.1-2.5-1.1c-0.1,0-0.1,0-0.2,0H30c-1.1,0-2,0.3-2.7,1.1c-2.3,2.4-2,8.1-2,8.9c0.1,0,0.2,0,0.2,0
				c0.1,0,0.3,0,0.4,0c0-0.1,0-0.2,0-0.4c0,0,0,0,0,0c0,0,0,0,0,0c0-1.5,0-6.1,1.8-8.1c0.6-0.6,1.3-0.9,2.1-0.9c0,0,0.1,0,0.2,0h0.2
				c0.9,0,1.6,0.3,2.2,0.9C34.3,18.4,34.3,23,34.3,24.5z"/>
			<path class="st1" d="M34.5,29.8c-0.1,0-0.1,0-0.2,0c0,0,0,0,0,0l0,0.9l-2.1,1.8c0.2,0.1,0.4,0.2,0.6,0.3l2.1-1.8l0-1.2
				C34.7,29.8,34.6,29.8,34.5,29.8z"/>
		</g>
		<g>
			<rect x="29.5" y="6.4" class="st2" width="1.1" height="8.8"/>
		</g>
		<g>
			<rect x="26.9" y="8.6" class="st2" width="6.3" height="1.2"/>
		</g>
		<g>
			<path class="st0" d="M25.6,29.6c-0.1,0-0.1,0-0.2,0l0,0c-0.2,0-0.4,0-0.5-0.1l0,0l0,0c-0.2,0-0.3-0.1-0.4-0.2l0,0l0,0l0,0
				c-0.1,0-0.2-0.1-0.3-0.2l0,0c-0.1-0.1-0.2-0.1-0.2-0.2c0,0,0,0,0,0l0,0l0,0c0,0,0,0,0,0l0,0c0,0-0.1-0.1-0.1-0.2l0,0l0,0
				c0-0.1-0.1-0.1-0.1-0.2l0,0l0,0c0-0.1-0.1-0.2-0.1-0.2l0,0l0,0l0,0l0,0c-0.1-0.2-0.1-0.3-0.2-0.5l0,0l0,0l0,0v0c0,0,0-0.1,0-0.1
				l0,0l0,0c0-0.2,0-0.3,0-0.5l0,0l0,0c0,0,0-0.1,0-0.1l0,0l0,0c0-0.1,0-0.2,0-0.3l0,0c0-0.1,0-0.1,0-0.2l0,0c0-0.1,0.1-0.2,0.1-0.3
				l0,0l0,0c0.1-0.2,0.2-0.4,0.3-0.5l0,0c0,0,0,0,0,0l0,0c0.1-0.1,0.2-0.2,0.2-0.3l0,0l0,0c0,0,0.1-0.1,0.1-0.1l0,0l0,0
				c0.1-0.1,0.2-0.2,0.4-0.2c0,0,0,0,0,0l0,0l0,0c0.1-0.1,0.2-0.1,0.4-0.1l0,0l0,0c0,0,0.1,0,0.1,0l0,0l0,0c0.2,0,0.4-0.1,0.6-0.1
				l0,0l0,0l0,0c-3.2-5.1-7.9-9-13.5-4.4c-8.3,6.9-0.3,15.4,3.6,18.8c-0.1-0.2-0.2-0.5-0.2-0.8c-1.8-2.8-0.6-7.5,3.8-7.5
				c1.2,0,2.2,0.4,2.9,1c0.6-0.3,1.2-0.4,1.9-0.4c1.6,0,2.8,0.6,3.5,1.6c0.2-0.2,0.5-0.3,0.8-0.5C26.9,32.1,26,31,25.6,29.6z"/>
			<path class="st1" d="M25.6,24.8c0.1,0,0.2,0,0.4,0c-2.2-3.7-5.3-6.8-8.9-6.8c-1.7,0-3.5,0.7-5.2,2.2c-2.6,2.1-3.8,4.6-3.7,7.4
				c0.2,5.4,5.3,10.3,7.8,12.3c-0.2-0.4-0.4-0.8-0.5-1.2c-2.6-2.3-6.6-6.6-6.7-11.1c-0.1-2.6,1.1-4.9,3.5-6.9c1.6-1.3,3.2-2,4.8-2
				c3.2,0,6,2.8,8.1,6.2C25.3,24.8,25.4,24.8,25.6,24.8z"/>
		</g>
		<g>
			<path class="st0" d="M47.9,20.5c-5.6-4.6-10.2-0.8-13.4,4.2c1.5,0,2.2,1.2,2.2,2.4c0.2,1.3-0.6,2.7-2.3,2.7c-0.1,0-0.1,0-0.2,0
				c0,0.1-0.1,0.2-0.1,0.3c-0.4,1-1.1,1.9-2.2,2.3c0.7,0.2,1.3,0.6,1.7,1.1c0.3,0.1,0.5,0.3,0.7,0.5c0.7-1.3,1.9-2.3,3.8-2.4
				c0.8-1,2-1.7,3.6-1.7c5,0,5.9,6.3,2.8,8.6c0,0.2-0.1,0.4-0.1,0.5C48.4,35.7,56.1,27.3,47.9,20.5z"/>
			<path class="st1" d="M48.1,20.2c-1.7-1.4-3.5-2.2-5.2-2.2c-3.5,0-6.4,3-8.7,6.5c0,0.1,0,0.1,0,0.2c0.1,0,0.1,0,0.2,0
				c0.2,0,0.3,0,0.4,0c2.1-3.3,4.9-6.1,8-6.1c1.6,0,3.2,0.7,4.8,2c2.4,2,3.6,4.3,3.5,6.9c-0.1,4.2-3.6,8.2-6.1,10.6
				c-0.1,0.1-0.2,0.2-0.3,0.3c0,0-0.1,0.1-0.1,0.1c-0.1,0.4-0.2,0.8-0.3,1.1c2.6-2.2,7.4-6.9,7.6-12.1C52,24.8,50.7,22.4,48.1,20.2z
				"/>
		</g>
	</g>
	<g>
		<path class="st0" d="M44.1,41.1c0,0,0.3-0.5,0.8-2.3c0,0-0.1-0.1-0.3-0.2c-0.4,1.9-1.8,3.5-4.1,3.7c-0.2,0.3-0.5,0.6-0.9,0.9
			c-0.3,0.4-0.6,0.7-0.9,0.9c-0.5,0.4-1,0.7-1.6,0.8C37,45,36.9,45,36.9,45c-0.2,0.1-0.3,0.1-0.5,0.2c-0.2,0-0.4,0.1-0.6,0.1
			c-0.6,0.7-1.5,1.3-2.6,1.5c-0.8,1-2,1.7-3.6,1.7c-1.4,0-2.5-0.5-3.3-1.3c-2.7-0.5-3.9-3.1-3.5-5.5c0,0,0,0,0,0c-0.2,0-0.4,0-0.6,0
			c0,0,0,0-0.1,0l0,0c-0.1,0-0.2,0.1-0.3,0.1l0,0c0,0-0.1,0-0.1,0.1c-0.1,0-0.3,0.1-0.4,0.1c0,0-0.1,0-0.1,0l0,0c-0.1,0-0.2,0-0.3,0
			c-0.1,0-0.1,0-0.2,0c-0.1,0-0.2,0-0.3,0c0,0,0,0,0,0c-0.1,0-0.1,0-0.2,0c0,0-0.1,0-0.1,0l0,0c0,0,0,0,0,0c-0.1,0-0.1,0-0.2,0
			c-2.3,0-3.7-1.4-4.3-3.1c-0.2,0.1-0.3,0.2-0.3,0.2c0.6,1.8,0.7,1.9,0.7,1.9c3,7.3-1.6,3.6-0.8,8.3c0.4,2.4,8,3.6,15.5,3.6
			c7-0.1,13.9-1.3,14.3-3.6C45.7,44.6,41.1,48.4,44.1,41.1z"/>
		<path class="st2" d="M45.2,38.9l0.1-0.2l-0.2-0.1c0,0-0.1-0.1-0.2-0.1c-0.1,0.1-0.1,0.1-0.2,0.2c-0.1,0.4-0.2,0.8-0.4,1.2
			c-0.3,0.9-0.5,1.2-0.5,1.2l0,0c-1.7,4.1-1.1,4.9,0,5.7c0.6,0.4,1.1,0.8,0.8,2.7c-0.3,1.8-6.2,3.2-14,3.3c-0.2,0-0.4,0-0.6,0l0,0
			c-8.1,0-14.2-1.4-14.6-3.3c-0.3-1.8,0.2-2.2,0.8-2.7c1.1-0.8,1.7-1.6,0-5.7v0l0,0c0,0-0.1-0.2-0.6-1.6c-0.1-0.2-0.2-0.4-0.2-0.7
			c-0.2,0.1-0.4,0.2-0.4,0.2L14.9,39l0.1,0.2c0.2,0.8,0.6,1.7,0.7,2c1.6,3.9,0.9,4.5,0.2,5c-0.6,0.5-1.4,1-1,3.3
			c0.4,2.6,7.9,3.8,15.2,3.8l0,0c0.2,0,0.4,0,0.6,0c6.4-0.1,14.1-1.1,14.6-3.8c0.4-2.2-0.4-2.8-1-3.3c-0.7-0.5-1.4-1,0.2-5
			C44.4,41.1,44.7,40.5,45.2,38.9z"/>
	</g>
</g>
<g>
	<g>
		<path class="st0" d="M16.1,33.5c3.2,0,3.2-5,0-5S12.9,33.5,16.1,33.5L16.1,33.5z"/>
	</g>
</g>
<g>
	<g>
		<path class="st0" d="M40.5,33.1c3.2,0,3.2-5,0-5C37.3,28.1,37.3,33.1,40.5,33.1L40.5,33.1z"/>
	</g>
</g>
<g>
	<g>
		<path class="st0" d="M37.3,34.8c3.2,0,3.2-5,0-5C34,29.8,34,34.8,37.3,34.8L37.3,34.8z"/>
	</g>
</g>
<path class="st1" d="M14.2,23"/>
<path class="st1" d="M39.1,31.5c-0.2-0.1-0.5-0.2-0.8-0.1c-0.3,0-0.6,0-0.8,0.3c-1.2,1.3-2.4,2.7-3.4,4.1c-0.1-0.4-0.5-0.7-0.9-0.7
	c-0.6,0-1,0.4-1,1c0,0.3,0,0.5-0.1,0.8c-0.1,0.8-0.3,1.7-0.7,2.4c-0.1,0.2,0,0.5,0.1,0.7c-0.2,0.5-0.4,0.9-0.6,1.4
	c-0.9,1.2-1.7,2.4-2.2,3.8c-0.4,1,1,1.6,1.7,1c1.1-1.1,1.7-2.5,2.3-3.9c0.7-0.9,1.4-1.7,2.2-2.5c0.4,0.5,1.3,0.7,1.6,0
	c0.8-1.6,1.5-3.3,2.1-5c0.3-0.6,0.7-1.2,1-1.9C39.7,32.4,39.6,31.8,39.1,31.5z"/>
<path class="st0" d="M47.2,31.4c0,0,0-0.1,0-0.1c-0.1-0.4-0.3-0.8-0.6-1.1c0,0,0,0,0,0c-0.2-0.2-0.5-0.4-0.8-0.5
	c-0.1-0.1-0.3-0.1-0.4-0.2c-0.4-0.6-1-1-2-1c-0.6,0-1.1,0.2-1.5,0.5c0,0-0.1-0.1-0.1-0.1c-0.5-0.3-1-0.1-1.4,0.4c0,0,0,0,0,0
	C40.2,29.1,40.1,29,40,29c-0.1,0-0.2-0.1-0.3-0.1c0.1-0.2,0.2-0.4,0.2-0.7c0.2-0.7,0.4-1.4,0.6-2.2c0.1-0.6,0.1-1.1-0.1-1.6
	c-0.2-0.5-0.5-1-1-1.2c-0.4-0.2-0.8-0.3-1.3-0.3c-0.7,0-1.3,0.3-1.8,0.7c-0.2,0.2-0.4,0.4-0.5,0.7c-0.4,0.1-0.7,0.3-1,0.5
	c-0.2-0.1-0.4-0.1-0.6-0.1c0-0.5,0-1.1-0.3-1.5c-0.1-0.2-0.2-0.4-0.3-0.5c0-0.1-0.1-0.2-0.1-0.3c-0.3-0.8-1.1-1.3-2.2-1.3
	c-0.2,0-0.5,0-0.7,0.1c-0.1,0-0.2,0-0.3,0.1c-0.4-0.4-0.9-0.7-1.7-0.7c-1.8,0-2.6,1.5-2.4,2.9c-0.1,0.3-0.2,0.7-0.2,1
	c0,0.2,0,0.4,0,0.5c0,0-0.1,0-0.1,0c-0.2,0-0.4,0-0.6,0.1c-0.2-0.2-0.5-0.4-0.9-0.5c-0.4-0.4-0.9-0.6-1.6-0.6c-0.5,0-1,0.2-1.3,0.4
	c-0.2,0-0.3-0.1-0.5-0.1c-1.5-0.2-3.2,0.6-3.2,2.4c0,0.6,0.1,1.3,0.2,1.9c-0.9,0.1-1.8,0.5-2.2,1.2c0,0-0.1,0-0.1,0
	c-0.2,0-0.4,0.1-0.7,0.1c-0.4,0.1-0.8,0.3-1.1,0.6c-0.1,0-0.1,0.1-0.2,0.2c-0.1,0.2-0.3,0.4-0.4,0.5c0,0,0,0,0,0c0,0,0,0,0,0
	c0,0,0,0.1-0.1,0.1c-0.2,0.3-0.3,0.6-0.3,0.9c-0.1,0.3-0.1,0.7,0,1c0,0,0,0,0,0.1c-0.2,0.4-0.3,0.7-0.3,1.1v0.1c0,0.3,0.1,0.7,0.2,1
	c0.1,0.3,0.3,0.6,0.5,0.8c0.2,0.2,0.5,0.4,0.8,0.5c0,0,0.1,0,0.1,0c0.1,0.8,0.5,1.4,1.1,1.9c0,0,0,0.1,0.1,0.1
	c0,0.1,0.1,0.2,0.1,0.2c0,0,0,0,0,0.1c0,0.1,0,0.1,0.1,0.2c0.1,0.6,0.4,1.2,0.9,1.6c0,0,0,0,0,0c-0.1,1.3,0.7,2.7,2.4,2.7
	c0.5,0,0.9-0.1,1.2-0.3c0.2,0.3,0.3,0.6,0.5,0.9c-0.2,0.4-0.4,0.9-0.4,1.3c0,1,0.8,2.2,1.8,2.4c1.7,0.3,3.5,0.5,5.2,0.7
	c1.5,0.2,3,0.2,4.5,0.6c1.2,0.4,2.4-0.3,2.9-1.3c0.1-0.1,0.2-0.1,0.3-0.2c0.5-0.5,0.9-1.1,1.3-1.7c1.2,0.4,2.2-0.1,3-1.1
	c0.6-0.9,1.2-1.8,1.7-2.7c0,0,0.1,0,0.1,0c0.8,0,1.4-0.3,1.8-0.8c0.3-0.2,0.5-0.4,0.6-0.7c0.2-0.2,0.3-0.4,0.4-0.7
	c0.2-0.3,0.3-0.6,0.3-1c0-0.1,0-0.1,0-0.2c0.1-0.1,0.1-0.3,0.2-0.4c0.3-0.2,0.6-0.4,0.7-0.7c0.3-0.2,0.5-0.6,0.6-0.9
	c0.3-0.5,0.5-1,0.5-1.6C47.9,34.6,48.2,32.5,47.2,31.4z"/>
</svg>
