<?xml version="1.0" encoding="utf-8"?>
<!-- Generator: Adobe Illustrator 26.3.1, SVG Export Plug-In . SVG Version: 6.00 Build 0)  -->
<svg version="1.1" id="Layer_1" xmlns="http://www.w3.org/2000/svg" xmlns:xlink="http://www.w3.org/1999/xlink" x="0px" y="0px"
	 viewBox="0 0 60 60" style="enable-background:new 0 0 60 60;" xml:space="preserve">
<style type="text/css">
	.st0{fill:#FFFFFF;}
	.st1{fill:#020203;}
</style>
<g>
	<g>
		<path class="st0" d="M22.56,12.48c0,0-1.39-4.38-5.5-6.78c0,0-1.6,3.99,0,6.84c0,0,0.23,2.97-3.31,5.25c0,0-0.91,0.91-0.57,4.9
			s-4.33,7.64-5.36,9.01s-2.85,8.33,0,10.49c2.85,2.17,7.87,2.62,10.95-0.91c3.08-3.54,3.65-5.02,6.84-6.73
			c3.19-1.71,6.84-5.36,6.73-9.13c-0.11-3.76,0-1.94,0-1.94s2.63,5.36,0,11.29c-2.63,5.93-4.85,6.73-7.39,9.58
			c-2.54,2.85-5,4.47-4.28,10.1h32.99c0,0-0.81-17.37-2.02-22.35c-1.21-4.98-3.23-16.97-20.6-20.6c0,0-7.25-1.14-12.27,3.19"/>
		<path class="st1" d="M54.07,54.86H20.34l-0.04-0.34c-0.65-5.05,1.21-7.03,3.36-9.31c0.33-0.35,0.67-0.71,1.01-1.1
			c0.7-0.78,1.37-1.42,2.03-2.03c1.76-1.64,3.41-3.2,5.3-7.45c1.52-3.44,1.22-6.71,0.73-8.77c-0.15,3.74-3.64,7.27-6.93,9.03
			c-2.3,1.23-3.17,2.31-4.76,4.27c-0.55,0.68-1.18,1.46-1.98,2.38c-3.14,3.6-8.4,3.3-11.47,0.97c-3.06-2.32-1.17-9.57-0.07-11.03
			c0.23-0.31,0.61-0.7,1.09-1.19c1.66-1.71,4.45-4.58,4.2-7.56c-0.35-4.05,0.57-5.1,0.68-5.21l0.06-0.05
			c3.01-1.95,3.14-4.35,3.14-4.82c-1.59-2.97-0.04-6.92,0.02-7.09l0.17-0.41l0.38,0.22c3.51,2.05,5.08,5.46,5.53,6.61
			c4.12-1.46,8.09-0.87,8.32-0.84C47.93,14.66,50.58,25.9,51.85,31.3c0.06,0.26,0.12,0.5,0.17,0.73c1.21,4.96,2,21.71,2.03,22.43
			L54.07,54.86z M21.02,54.09h32.25c-0.13-2.63-0.9-17.41-1.99-21.88c-0.06-0.23-0.11-0.48-0.18-0.74
			c-1.24-5.25-3.8-16.16-20.13-19.58c-0.05-0.01-7.12-1.06-11.94,3.11l-0.5-0.58c1.11-0.96,2.33-1.66,3.55-2.17
			c-0.4-1.01-1.81-4.05-4.8-5.98c-0.34,1.08-1.06,3.95,0.13,6.08l0.04,0.07l0.01,0.08c0.01,0.13,0.2,3.19-3.43,5.57
			c-0.1,0.15-0.73,1.21-0.45,4.58c0.29,3.32-2.65,6.35-4.41,8.16c-0.44,0.46-0.82,0.85-1.03,1.12c-0.94,1.25-2.67,7.99-0.07,9.96
			c2.8,2.13,7.58,2.41,10.43-0.86c0.79-0.91,1.41-1.68,1.96-2.36c1.59-1.97,2.55-3.15,4.99-4.46c3.32-1.78,6.63-5.37,6.53-8.78
			c-0.08-2.76-0.08-2.76,0.33-2.78c0.37-0.03,0.41,0.28,0.44,0.73c0.32,0.69,2.51,5.82-0.03,11.55c-1.95,4.4-3.66,6-5.47,7.7
			c-0.64,0.6-1.3,1.22-1.98,1.98c-0.35,0.39-0.69,0.76-1.03,1.11C22.17,47.92,20.54,49.65,21.02,54.09z"/>
	</g>
</g>
</svg>
