<?xml version="1.0" encoding="utf-8"?>
<!-- Generator: Adobe Illustrator 26.3.1, SVG Export Plug-In . SVG Version: 6.00 Build 0)  -->
<svg version="1.1" id="Layer_1" xmlns="http://www.w3.org/2000/svg" xmlns:xlink="http://www.w3.org/1999/xlink" x="0px" y="0px"
	 viewBox="0 0 60 60" style="enable-background:new 0 0 60 60;" xml:space="preserve">
<style type="text/css">
	.st0{fill:#FFFFFF;}
	.st1{fill:#222221;}
</style>
<g>
	<g>
		<g>
			<path class="st0" d="M41.34,31.23c0,0-1.1-12.31-4.83-18.46c0,0-5.05,5.71-6.37,16.04c0,0.01,0,0.01,0,0.02c0-0.01,0-0.01,0-0.02
				c-1.32-10.33-6.37-16.04-6.37-16.04c-3.74,6.15-4.83,18.46-4.83,18.46s-7.98-7.22-9.7-8.81c1.25,1.52,6.23,17.3,6.23,17.3
				c3.12,7.69-1.66,3.74-0.83,8.73c0.43,2.56,8.43,3.81,16.22,3.74c7.38-0.07,14.56-1.31,14.97-3.74c0.83-4.99-3.95-1.04-0.83-8.73
				c0,0,4.81-15.78,6.07-17.3C49.32,24.01,41.34,31.23,41.34,31.23z"/>
			<path class="st1" d="M30.21,52.53c-7.59,0-15.46-1.24-15.92-4.02c-0.39-2.34,0.43-2.94,1.09-3.43c0.75-0.55,1.45-1.07-0.24-5.23
				c-1.39-4.4-5.18-16.01-6.18-17.22l0.48-0.45c1.45,1.35,7.45,6.78,9.21,8.37c0.29-2.66,1.53-12.54,4.82-17.95l0.23-0.39l0.3,0.34
				c0.05,0.05,4.45,5.12,6.13,14.13c1.68-9.01,6.08-14.08,6.13-14.13l0.3-0.34l0.23,0.39c3.28,5.4,4.53,15.29,4.82,17.95
				c1.76-1.59,7.76-7.02,9.21-8.37l0.48,0.45c-0.99,1.21-4.67,12.82-6.01,17.19c-1.7,4.19-0.99,4.71-0.25,5.26
				c0.66,0.49,1.48,1.09,1.09,3.43c-0.48,2.87-8.54,3.96-15.29,4.02C30.63,52.53,30.42,52.53,30.21,52.53z M10.32,23.88
				c1.85,4.37,5.27,15.19,5.44,15.74c1.74,4.29,1.13,5.16,0.01,5.99c-0.59,0.44-1.15,0.85-0.83,2.79c0.33,2.01,6.76,3.47,15.27,3.47
				c0.21,0,0.41,0,0.62,0c8.16-0.07,14.32-1.53,14.64-3.46c0.32-1.94-0.24-2.35-0.83-2.79c-1.13-0.83-1.73-1.7,0.02-6.02
				c0.16-0.52,3.47-11.37,5.29-15.73c-2.82,2.58-8.32,7.55-8.39,7.61l-0.49,0.45l-0.06-0.66c-0.01-0.12-1.09-11.77-4.55-17.91
				c-1.09,1.4-4.89,6.84-6,15.5l-0.34,2.69l-0.32-2.67c-1.11-8.69-4.91-14.12-6-15.52c-3.46,6.14-4.54,17.79-4.55,17.91l-0.06,0.66
				l-0.49-0.45C18.63,31.42,13.15,26.46,10.32,23.88z"/>
		</g>
	</g>
	<g>
		
			<ellipse transform="matrix(0.9732 -0.2298 0.2298 0.9732 -1.7362 5.663)" class="st0" cx="23.45" cy="10.29" rx="2.48" ry="2.48"/>
		<path class="st1" d="M23.45,13.1c-1.55,0-2.81-1.26-2.81-2.81c0-1.55,1.26-2.81,2.81-2.81c1.55,0,2.81,1.26,2.81,2.81
			C26.26,11.84,25,13.1,23.45,13.1z M23.45,8.14c-1.19,0-2.15,0.96-2.15,2.15c0,1.19,0.96,2.15,2.15,2.15
			c1.19,0,2.15-0.96,2.15-2.15C25.6,9.1,24.64,8.14,23.45,8.14z"/>
	</g>
	<g>
		
			<ellipse transform="matrix(0.9871 -0.1602 0.1602 0.9871 -1.1738 6.0124)" class="st0" cx="36.71" cy="10.29" rx="2.48" ry="2.48"/>
		<path class="st1" d="M36.71,13.1c-1.55,0-2.81-1.26-2.81-2.81c0-1.55,1.26-2.81,2.81-2.81c1.55,0,2.81,1.26,2.81,2.81
			C39.52,11.84,38.26,13.1,36.71,13.1z M36.71,8.14c-1.19,0-2.15,0.96-2.15,2.15c0,1.19,0.96,2.15,2.15,2.15
			c1.19,0,2.15-0.96,2.15-2.15C38.86,9.1,37.89,8.14,36.71,8.14z"/>
	</g>
	<g>
		<circle class="st0" cx="51.83" cy="20.58" r="2.48"/>
		<path class="st1" d="M51.83,23.39c-1.55,0-2.81-1.26-2.81-2.81c0-1.55,1.26-2.81,2.81-2.81c1.55,0,2.81,1.26,2.81,2.81
			C54.65,22.13,53.38,23.39,51.83,23.39z M51.83,18.43c-1.19,0-2.15,0.96-2.15,2.15c0,1.19,0.96,2.15,2.15,2.15s2.15-0.96,2.15-2.15
			C53.98,19.39,53.02,18.43,51.83,18.43z"/>
	</g>
	<g>
		<circle class="st0" cx="8.17" cy="20.58" r="2.48"/>
		<path class="st1" d="M8.17,23.39c-1.55,0-2.81-1.26-2.81-2.81c0-1.55,1.26-2.81,2.81-2.81c1.55,0,2.81,1.26,2.81,2.81
			C10.98,22.13,9.72,23.39,8.17,23.39z M8.17,18.43c-1.19,0-2.15,0.96-2.15,2.15c0,1.19,0.96,2.15,2.15,2.15
			c1.19,0,2.15-0.96,2.15-2.15C10.32,19.39,9.35,18.43,8.17,18.43z"/>
	</g>
</g>
</svg>
