<?xml version="1.0" encoding="utf-8"?>
<!-- Generator: Adobe Illustrator 26.3.1, SVG Export Plug-In . SVG Version: 6.00 Build 0)  -->
<svg version="1.1" id="Layer_1" xmlns="http://www.w3.org/2000/svg" xmlns:xlink="http://www.w3.org/1999/xlink" x="0px" y="0px"
	 viewBox="0 0 60 60" style="enable-background:new 0 0 60 60;" xml:space="preserve">
<style type="text/css">
	.st0{fill:#FFFFFF;}
	.st1{fill:#020203;}
</style>
<g>
	<g>
		<polygon class="st0" points="47.27,47.89 47.27,41.41 47.27,41.41 47.27,41.41 47.27,40.78 43.71,38.24 41.87,38.24 41.87,17.29 
			43.71,17.29 47.27,14.75 47.27,14.11 47.27,14.11 47.27,14.11 47.27,5.51 40.16,5.51 40.16,10.08 33.56,10.08 33.56,5.51 
			26.44,5.51 26.44,10.08 19.84,10.08 19.84,5.51 12.73,5.51 12.73,14.11 12.73,14.11 12.73,14.11 12.73,14.75 16.29,17.29 
			18.13,17.29 18.13,38.24 16.29,38.24 12.73,40.78 12.73,41.41 12.73,41.41 12.73,41.41 12.73,47.89 7.97,47.89 7.97,54.49 
			52.03,54.49 52.03,47.89 		"/>
		<path class="st1" d="M52.38,54.84H7.62v-7.31h4.76V40.6l3.79-2.71h1.6V17.64h-1.6l-3.79-2.71V5.16h7.82v4.57h5.9V5.16h7.82v4.57
			h5.9V5.16h7.82v9.77l-3.79,2.71h-1.6v20.25h1.6l3.79,2.71v6.94h4.76V54.84z M8.32,54.14h43.35v-5.9h-4.76v-7.28l-3.32-2.37h-2.08
			V16.93h2.08l3.32-2.37v-8.7h-6.41v4.57H33.2V5.86H26.8v4.57h-7.31V5.86h-6.41v8.7l3.32,2.37h2.08v21.66H16.4l-3.32,2.37v7.28H8.32
			V54.14z"/>
	</g>
</g>
</svg>
